G04 MADE WITH FRITZING*
G04 WWW.FRITZING.ORG*
G04 DOUBLE SIDED*
G04 HOLES PLATED*
G04 CONTOUR ON CENTER OF CONTOUR VECTOR*
%ASAXBY*%
%FSLAX23Y23*%
%MOIN*%
%OFA0B0*%
%SFA1.0B1.0*%
%ADD10C,0.075000*%
%ADD11C,0.070000*%
%ADD12C,0.074000*%
%ADD13C,0.024000*%
%ADD14R,0.001000X0.001000*%
%LNCOPPER1*%
G90*
G70*
G54D10*
X528Y2365D03*
X594Y488D03*
G54D11*
X508Y1342D03*
X608Y1342D03*
X274Y1170D03*
X374Y1170D03*
G54D12*
X272Y1400D03*
X272Y1290D03*
X272Y1400D03*
X272Y1290D03*
X272Y1400D03*
X272Y1290D03*
G54D11*
X231Y1747D03*
X331Y1747D03*
X431Y1747D03*
X231Y2347D03*
X431Y2347D03*
X231Y345D03*
X331Y345D03*
X431Y345D03*
X231Y945D03*
X431Y945D03*
G54D12*
X90Y155D03*
X190Y145D03*
X290Y155D03*
X390Y145D03*
X490Y155D03*
X590Y145D03*
G54D13*
X272Y1259D02*
X274Y1196D01*
D02*
X390Y1191D02*
X492Y1322D01*
D02*
X327Y1722D02*
X277Y1431D01*
D02*
X607Y1598D02*
X608Y1368D01*
D02*
X243Y2324D02*
X607Y1598D01*
D02*
X502Y271D02*
X606Y1316D01*
D02*
X309Y228D02*
X502Y271D01*
D02*
X298Y185D02*
X309Y228D01*
D02*
X427Y919D02*
X336Y370D01*
G36*
X40Y2421D02*
X40Y2393D01*
X438Y2393D01*
X438Y2391D01*
X444Y2391D01*
X444Y2389D01*
X450Y2389D01*
X450Y2387D01*
X452Y2387D01*
X452Y2385D01*
X456Y2385D01*
X456Y2383D01*
X458Y2383D01*
X458Y2381D01*
X460Y2381D01*
X460Y2379D01*
X462Y2379D01*
X462Y2377D01*
X464Y2377D01*
X464Y2375D01*
X466Y2375D01*
X466Y2373D01*
X468Y2373D01*
X468Y2371D01*
X470Y2371D01*
X470Y2367D01*
X472Y2367D01*
X472Y2363D01*
X474Y2363D01*
X474Y2357D01*
X476Y2357D01*
X476Y2339D01*
X474Y2339D01*
X474Y2333D01*
X472Y2333D01*
X472Y2329D01*
X470Y2329D01*
X470Y2325D01*
X468Y2325D01*
X468Y2323D01*
X466Y2323D01*
X466Y2321D01*
X464Y2321D01*
X464Y2317D01*
X462Y2317D01*
X462Y2315D01*
X458Y2315D01*
X458Y2313D01*
X456Y2313D01*
X456Y2311D01*
X454Y2311D01*
X454Y2309D01*
X450Y2309D01*
X450Y2307D01*
X446Y2307D01*
X446Y2305D01*
X440Y2305D01*
X440Y2303D01*
X668Y2303D01*
X668Y2421D01*
X40Y2421D01*
G37*
D02*
G36*
X40Y2393D02*
X40Y1793D01*
X438Y1793D01*
X438Y1791D01*
X446Y1791D01*
X446Y1789D01*
X450Y1789D01*
X450Y1787D01*
X452Y1787D01*
X452Y1785D01*
X456Y1785D01*
X456Y1783D01*
X458Y1783D01*
X458Y1781D01*
X460Y1781D01*
X460Y1779D01*
X462Y1779D01*
X462Y1777D01*
X464Y1777D01*
X464Y1775D01*
X466Y1775D01*
X466Y1773D01*
X468Y1773D01*
X468Y1771D01*
X470Y1771D01*
X470Y1767D01*
X472Y1767D01*
X472Y1763D01*
X474Y1763D01*
X474Y1757D01*
X476Y1757D01*
X476Y1739D01*
X474Y1739D01*
X474Y1733D01*
X472Y1733D01*
X472Y1729D01*
X470Y1729D01*
X470Y1725D01*
X468Y1725D01*
X468Y1723D01*
X466Y1723D01*
X466Y1721D01*
X464Y1721D01*
X464Y1717D01*
X462Y1717D01*
X462Y1715D01*
X458Y1715D01*
X458Y1713D01*
X456Y1713D01*
X456Y1711D01*
X454Y1711D01*
X454Y1709D01*
X450Y1709D01*
X450Y1707D01*
X446Y1707D01*
X446Y1705D01*
X440Y1705D01*
X440Y1703D01*
X530Y1703D01*
X530Y1705D01*
X528Y1705D01*
X528Y1709D01*
X526Y1709D01*
X526Y1713D01*
X524Y1713D01*
X524Y1717D01*
X522Y1717D01*
X522Y1721D01*
X520Y1721D01*
X520Y1725D01*
X518Y1725D01*
X518Y1729D01*
X516Y1729D01*
X516Y1733D01*
X514Y1733D01*
X514Y1737D01*
X512Y1737D01*
X512Y1741D01*
X510Y1741D01*
X510Y1745D01*
X508Y1745D01*
X508Y1749D01*
X506Y1749D01*
X506Y1753D01*
X504Y1753D01*
X504Y1757D01*
X502Y1757D01*
X502Y1761D01*
X500Y1761D01*
X500Y1765D01*
X498Y1765D01*
X498Y1769D01*
X496Y1769D01*
X496Y1773D01*
X494Y1773D01*
X494Y1777D01*
X492Y1777D01*
X492Y1781D01*
X490Y1781D01*
X490Y1785D01*
X488Y1785D01*
X488Y1789D01*
X486Y1789D01*
X486Y1793D01*
X484Y1793D01*
X484Y1797D01*
X482Y1797D01*
X482Y1801D01*
X480Y1801D01*
X480Y1805D01*
X478Y1805D01*
X478Y1809D01*
X476Y1809D01*
X476Y1813D01*
X474Y1813D01*
X474Y1817D01*
X472Y1817D01*
X472Y1821D01*
X470Y1821D01*
X470Y1825D01*
X468Y1825D01*
X468Y1829D01*
X466Y1829D01*
X466Y1833D01*
X464Y1833D01*
X464Y1837D01*
X462Y1837D01*
X462Y1841D01*
X460Y1841D01*
X460Y1845D01*
X458Y1845D01*
X458Y1849D01*
X456Y1849D01*
X456Y1853D01*
X454Y1853D01*
X454Y1857D01*
X452Y1857D01*
X452Y1861D01*
X450Y1861D01*
X450Y1865D01*
X448Y1865D01*
X448Y1869D01*
X446Y1869D01*
X446Y1873D01*
X444Y1873D01*
X444Y1877D01*
X442Y1877D01*
X442Y1881D01*
X440Y1881D01*
X440Y1885D01*
X438Y1885D01*
X438Y1889D01*
X436Y1889D01*
X436Y1893D01*
X434Y1893D01*
X434Y1897D01*
X432Y1897D01*
X432Y1901D01*
X430Y1901D01*
X430Y1905D01*
X428Y1905D01*
X428Y1909D01*
X426Y1909D01*
X426Y1913D01*
X424Y1913D01*
X424Y1917D01*
X422Y1917D01*
X422Y1921D01*
X420Y1921D01*
X420Y1925D01*
X418Y1925D01*
X418Y1929D01*
X416Y1929D01*
X416Y1933D01*
X414Y1933D01*
X414Y1937D01*
X412Y1937D01*
X412Y1941D01*
X410Y1941D01*
X410Y1945D01*
X408Y1945D01*
X408Y1949D01*
X406Y1949D01*
X406Y1953D01*
X404Y1953D01*
X404Y1957D01*
X402Y1957D01*
X402Y1961D01*
X400Y1961D01*
X400Y1965D01*
X398Y1965D01*
X398Y1969D01*
X396Y1969D01*
X396Y1973D01*
X394Y1973D01*
X394Y1977D01*
X392Y1977D01*
X392Y1981D01*
X390Y1981D01*
X390Y1985D01*
X388Y1985D01*
X388Y1989D01*
X386Y1989D01*
X386Y1993D01*
X384Y1993D01*
X384Y1997D01*
X382Y1997D01*
X382Y2001D01*
X380Y2001D01*
X380Y2005D01*
X378Y2005D01*
X378Y2009D01*
X376Y2009D01*
X376Y2013D01*
X374Y2013D01*
X374Y2017D01*
X372Y2017D01*
X372Y2021D01*
X370Y2021D01*
X370Y2025D01*
X368Y2025D01*
X368Y2029D01*
X366Y2029D01*
X366Y2033D01*
X364Y2033D01*
X364Y2037D01*
X362Y2037D01*
X362Y2041D01*
X360Y2041D01*
X360Y2045D01*
X358Y2045D01*
X358Y2049D01*
X356Y2049D01*
X356Y2053D01*
X354Y2053D01*
X354Y2057D01*
X352Y2057D01*
X352Y2061D01*
X350Y2061D01*
X350Y2065D01*
X348Y2065D01*
X348Y2069D01*
X346Y2069D01*
X346Y2073D01*
X344Y2073D01*
X344Y2077D01*
X342Y2077D01*
X342Y2081D01*
X340Y2081D01*
X340Y2085D01*
X338Y2085D01*
X338Y2089D01*
X336Y2089D01*
X336Y2093D01*
X334Y2093D01*
X334Y2097D01*
X332Y2097D01*
X332Y2101D01*
X330Y2101D01*
X330Y2105D01*
X328Y2105D01*
X328Y2109D01*
X326Y2109D01*
X326Y2113D01*
X324Y2113D01*
X324Y2117D01*
X322Y2117D01*
X322Y2121D01*
X320Y2121D01*
X320Y2125D01*
X318Y2125D01*
X318Y2129D01*
X316Y2129D01*
X316Y2133D01*
X314Y2133D01*
X314Y2137D01*
X312Y2137D01*
X312Y2141D01*
X310Y2141D01*
X310Y2145D01*
X308Y2145D01*
X308Y2149D01*
X306Y2149D01*
X306Y2153D01*
X304Y2153D01*
X304Y2155D01*
X302Y2155D01*
X302Y2159D01*
X300Y2159D01*
X300Y2163D01*
X298Y2163D01*
X298Y2167D01*
X296Y2167D01*
X296Y2171D01*
X294Y2171D01*
X294Y2175D01*
X292Y2175D01*
X292Y2179D01*
X290Y2179D01*
X290Y2183D01*
X288Y2183D01*
X288Y2187D01*
X286Y2187D01*
X286Y2191D01*
X284Y2191D01*
X284Y2195D01*
X282Y2195D01*
X282Y2199D01*
X280Y2199D01*
X280Y2203D01*
X278Y2203D01*
X278Y2207D01*
X276Y2207D01*
X276Y2211D01*
X274Y2211D01*
X274Y2215D01*
X272Y2215D01*
X272Y2219D01*
X270Y2219D01*
X270Y2223D01*
X268Y2223D01*
X268Y2227D01*
X266Y2227D01*
X266Y2231D01*
X264Y2231D01*
X264Y2235D01*
X262Y2235D01*
X262Y2239D01*
X260Y2239D01*
X260Y2243D01*
X258Y2243D01*
X258Y2247D01*
X256Y2247D01*
X256Y2251D01*
X254Y2251D01*
X254Y2255D01*
X252Y2255D01*
X252Y2259D01*
X250Y2259D01*
X250Y2263D01*
X248Y2263D01*
X248Y2267D01*
X246Y2267D01*
X246Y2271D01*
X244Y2271D01*
X244Y2275D01*
X242Y2275D01*
X242Y2279D01*
X240Y2279D01*
X240Y2283D01*
X238Y2283D01*
X238Y2287D01*
X236Y2287D01*
X236Y2291D01*
X234Y2291D01*
X234Y2295D01*
X232Y2295D01*
X232Y2299D01*
X230Y2299D01*
X230Y2303D01*
X222Y2303D01*
X222Y2305D01*
X216Y2305D01*
X216Y2307D01*
X212Y2307D01*
X212Y2309D01*
X210Y2309D01*
X210Y2311D01*
X206Y2311D01*
X206Y2313D01*
X204Y2313D01*
X204Y2315D01*
X202Y2315D01*
X202Y2317D01*
X200Y2317D01*
X200Y2319D01*
X198Y2319D01*
X198Y2321D01*
X196Y2321D01*
X196Y2323D01*
X194Y2323D01*
X194Y2327D01*
X192Y2327D01*
X192Y2331D01*
X190Y2331D01*
X190Y2335D01*
X188Y2335D01*
X188Y2341D01*
X186Y2341D01*
X186Y2353D01*
X188Y2353D01*
X188Y2361D01*
X190Y2361D01*
X190Y2365D01*
X192Y2365D01*
X192Y2369D01*
X194Y2369D01*
X194Y2371D01*
X196Y2371D01*
X196Y2375D01*
X198Y2375D01*
X198Y2377D01*
X200Y2377D01*
X200Y2379D01*
X202Y2379D01*
X202Y2381D01*
X204Y2381D01*
X204Y2383D01*
X208Y2383D01*
X208Y2385D01*
X210Y2385D01*
X210Y2387D01*
X214Y2387D01*
X214Y2389D01*
X218Y2389D01*
X218Y2391D01*
X224Y2391D01*
X224Y2393D01*
X40Y2393D01*
G37*
D02*
G36*
X238Y2393D02*
X238Y2391D01*
X244Y2391D01*
X244Y2389D01*
X250Y2389D01*
X250Y2387D01*
X252Y2387D01*
X252Y2385D01*
X256Y2385D01*
X256Y2383D01*
X258Y2383D01*
X258Y2381D01*
X260Y2381D01*
X260Y2379D01*
X262Y2379D01*
X262Y2377D01*
X264Y2377D01*
X264Y2375D01*
X266Y2375D01*
X266Y2373D01*
X268Y2373D01*
X268Y2371D01*
X270Y2371D01*
X270Y2367D01*
X272Y2367D01*
X272Y2363D01*
X274Y2363D01*
X274Y2357D01*
X276Y2357D01*
X276Y2339D01*
X274Y2339D01*
X274Y2333D01*
X272Y2333D01*
X272Y2313D01*
X274Y2313D01*
X274Y2309D01*
X276Y2309D01*
X276Y2305D01*
X278Y2305D01*
X278Y2303D01*
X422Y2303D01*
X422Y2305D01*
X416Y2305D01*
X416Y2307D01*
X412Y2307D01*
X412Y2309D01*
X410Y2309D01*
X410Y2311D01*
X406Y2311D01*
X406Y2313D01*
X404Y2313D01*
X404Y2315D01*
X402Y2315D01*
X402Y2317D01*
X400Y2317D01*
X400Y2319D01*
X398Y2319D01*
X398Y2321D01*
X396Y2321D01*
X396Y2323D01*
X394Y2323D01*
X394Y2327D01*
X392Y2327D01*
X392Y2331D01*
X390Y2331D01*
X390Y2335D01*
X388Y2335D01*
X388Y2341D01*
X386Y2341D01*
X386Y2355D01*
X388Y2355D01*
X388Y2361D01*
X390Y2361D01*
X390Y2365D01*
X392Y2365D01*
X392Y2369D01*
X394Y2369D01*
X394Y2371D01*
X396Y2371D01*
X396Y2375D01*
X398Y2375D01*
X398Y2377D01*
X400Y2377D01*
X400Y2379D01*
X402Y2379D01*
X402Y2381D01*
X404Y2381D01*
X404Y2383D01*
X408Y2383D01*
X408Y2385D01*
X410Y2385D01*
X410Y2387D01*
X414Y2387D01*
X414Y2389D01*
X418Y2389D01*
X418Y2391D01*
X424Y2391D01*
X424Y2393D01*
X238Y2393D01*
G37*
D02*
G36*
X278Y2303D02*
X278Y2301D01*
X668Y2301D01*
X668Y2303D01*
X278Y2303D01*
G37*
D02*
G36*
X278Y2303D02*
X278Y2301D01*
X668Y2301D01*
X668Y2303D01*
X278Y2303D01*
G37*
D02*
G36*
X280Y2301D02*
X280Y2297D01*
X282Y2297D01*
X282Y2293D01*
X284Y2293D01*
X284Y2289D01*
X286Y2289D01*
X286Y2287D01*
X288Y2287D01*
X288Y2283D01*
X290Y2283D01*
X290Y2279D01*
X292Y2279D01*
X292Y2275D01*
X294Y2275D01*
X294Y2271D01*
X296Y2271D01*
X296Y2267D01*
X298Y2267D01*
X298Y2263D01*
X300Y2263D01*
X300Y2259D01*
X302Y2259D01*
X302Y2255D01*
X304Y2255D01*
X304Y2251D01*
X306Y2251D01*
X306Y2247D01*
X308Y2247D01*
X308Y2243D01*
X310Y2243D01*
X310Y2239D01*
X312Y2239D01*
X312Y2235D01*
X314Y2235D01*
X314Y2231D01*
X316Y2231D01*
X316Y2227D01*
X318Y2227D01*
X318Y2223D01*
X320Y2223D01*
X320Y2219D01*
X322Y2219D01*
X322Y2215D01*
X324Y2215D01*
X324Y2211D01*
X326Y2211D01*
X326Y2207D01*
X328Y2207D01*
X328Y2203D01*
X330Y2203D01*
X330Y2199D01*
X332Y2199D01*
X332Y2195D01*
X334Y2195D01*
X334Y2191D01*
X336Y2191D01*
X336Y2187D01*
X338Y2187D01*
X338Y2183D01*
X340Y2183D01*
X340Y2179D01*
X342Y2179D01*
X342Y2175D01*
X344Y2175D01*
X344Y2171D01*
X346Y2171D01*
X346Y2167D01*
X348Y2167D01*
X348Y2163D01*
X350Y2163D01*
X350Y2159D01*
X352Y2159D01*
X352Y2155D01*
X354Y2155D01*
X354Y2151D01*
X356Y2151D01*
X356Y2147D01*
X358Y2147D01*
X358Y2143D01*
X360Y2143D01*
X360Y2139D01*
X362Y2139D01*
X362Y2135D01*
X364Y2135D01*
X364Y2131D01*
X366Y2131D01*
X366Y2127D01*
X368Y2127D01*
X368Y2123D01*
X370Y2123D01*
X370Y2119D01*
X372Y2119D01*
X372Y2115D01*
X374Y2115D01*
X374Y2111D01*
X376Y2111D01*
X376Y2107D01*
X378Y2107D01*
X378Y2103D01*
X380Y2103D01*
X380Y2099D01*
X382Y2099D01*
X382Y2095D01*
X384Y2095D01*
X384Y2091D01*
X386Y2091D01*
X386Y2087D01*
X388Y2087D01*
X388Y2083D01*
X390Y2083D01*
X390Y2079D01*
X392Y2079D01*
X392Y2075D01*
X394Y2075D01*
X394Y2071D01*
X396Y2071D01*
X396Y2067D01*
X398Y2067D01*
X398Y2063D01*
X400Y2063D01*
X400Y2059D01*
X402Y2059D01*
X402Y2055D01*
X404Y2055D01*
X404Y2051D01*
X406Y2051D01*
X406Y2047D01*
X408Y2047D01*
X408Y2043D01*
X410Y2043D01*
X410Y2039D01*
X412Y2039D01*
X412Y2035D01*
X414Y2035D01*
X414Y2031D01*
X416Y2031D01*
X416Y2027D01*
X418Y2027D01*
X418Y2023D01*
X420Y2023D01*
X420Y2019D01*
X422Y2019D01*
X422Y2015D01*
X424Y2015D01*
X424Y2011D01*
X426Y2011D01*
X426Y2007D01*
X428Y2007D01*
X428Y2003D01*
X430Y2003D01*
X430Y1999D01*
X432Y1999D01*
X432Y1995D01*
X434Y1995D01*
X434Y1991D01*
X436Y1991D01*
X436Y1987D01*
X438Y1987D01*
X438Y1983D01*
X440Y1983D01*
X440Y1979D01*
X442Y1979D01*
X442Y1975D01*
X444Y1975D01*
X444Y1971D01*
X446Y1971D01*
X446Y1967D01*
X448Y1967D01*
X448Y1963D01*
X450Y1963D01*
X450Y1959D01*
X452Y1959D01*
X452Y1955D01*
X454Y1955D01*
X454Y1951D01*
X456Y1951D01*
X456Y1947D01*
X458Y1947D01*
X458Y1943D01*
X460Y1943D01*
X460Y1939D01*
X462Y1939D01*
X462Y1935D01*
X464Y1935D01*
X464Y1931D01*
X466Y1931D01*
X466Y1927D01*
X468Y1927D01*
X468Y1923D01*
X470Y1923D01*
X470Y1919D01*
X472Y1919D01*
X472Y1915D01*
X474Y1915D01*
X474Y1911D01*
X476Y1911D01*
X476Y1907D01*
X478Y1907D01*
X478Y1903D01*
X480Y1903D01*
X480Y1899D01*
X482Y1899D01*
X482Y1895D01*
X484Y1895D01*
X484Y1891D01*
X486Y1891D01*
X486Y1887D01*
X488Y1887D01*
X488Y1883D01*
X490Y1883D01*
X490Y1879D01*
X492Y1879D01*
X492Y1875D01*
X494Y1875D01*
X494Y1871D01*
X496Y1871D01*
X496Y1867D01*
X498Y1867D01*
X498Y1863D01*
X500Y1863D01*
X500Y1859D01*
X502Y1859D01*
X502Y1855D01*
X504Y1855D01*
X504Y1851D01*
X506Y1851D01*
X506Y1847D01*
X508Y1847D01*
X508Y1843D01*
X510Y1843D01*
X510Y1839D01*
X512Y1839D01*
X512Y1835D01*
X514Y1835D01*
X514Y1831D01*
X516Y1831D01*
X516Y1827D01*
X518Y1827D01*
X518Y1823D01*
X520Y1823D01*
X520Y1819D01*
X522Y1819D01*
X522Y1815D01*
X524Y1815D01*
X524Y1811D01*
X526Y1811D01*
X526Y1807D01*
X528Y1807D01*
X528Y1803D01*
X530Y1803D01*
X530Y1799D01*
X532Y1799D01*
X532Y1795D01*
X534Y1795D01*
X534Y1791D01*
X536Y1791D01*
X536Y1789D01*
X538Y1789D01*
X538Y1785D01*
X540Y1785D01*
X540Y1781D01*
X542Y1781D01*
X542Y1777D01*
X544Y1777D01*
X544Y1773D01*
X546Y1773D01*
X546Y1769D01*
X548Y1769D01*
X548Y1765D01*
X550Y1765D01*
X550Y1761D01*
X552Y1761D01*
X552Y1757D01*
X554Y1757D01*
X554Y1753D01*
X556Y1753D01*
X556Y1749D01*
X558Y1749D01*
X558Y1745D01*
X560Y1745D01*
X560Y1741D01*
X562Y1741D01*
X562Y1737D01*
X564Y1737D01*
X564Y1733D01*
X566Y1733D01*
X566Y1729D01*
X568Y1729D01*
X568Y1725D01*
X570Y1725D01*
X570Y1721D01*
X572Y1721D01*
X572Y1717D01*
X574Y1717D01*
X574Y1713D01*
X576Y1713D01*
X576Y1709D01*
X578Y1709D01*
X578Y1705D01*
X580Y1705D01*
X580Y1701D01*
X582Y1701D01*
X582Y1697D01*
X584Y1697D01*
X584Y1693D01*
X586Y1693D01*
X586Y1689D01*
X588Y1689D01*
X588Y1685D01*
X590Y1685D01*
X590Y1681D01*
X592Y1681D01*
X592Y1677D01*
X594Y1677D01*
X594Y1673D01*
X596Y1673D01*
X596Y1669D01*
X598Y1669D01*
X598Y1665D01*
X600Y1665D01*
X600Y1661D01*
X602Y1661D01*
X602Y1657D01*
X604Y1657D01*
X604Y1653D01*
X606Y1653D01*
X606Y1649D01*
X608Y1649D01*
X608Y1645D01*
X610Y1645D01*
X610Y1641D01*
X612Y1641D01*
X612Y1637D01*
X614Y1637D01*
X614Y1633D01*
X616Y1633D01*
X616Y1629D01*
X618Y1629D01*
X618Y1625D01*
X620Y1625D01*
X620Y1621D01*
X622Y1621D01*
X622Y1617D01*
X624Y1617D01*
X624Y1613D01*
X626Y1613D01*
X626Y1609D01*
X628Y1609D01*
X628Y1603D01*
X630Y1603D01*
X630Y1381D01*
X632Y1381D01*
X632Y1379D01*
X634Y1379D01*
X634Y1377D01*
X636Y1377D01*
X636Y1375D01*
X638Y1375D01*
X638Y1373D01*
X640Y1373D01*
X640Y1371D01*
X642Y1371D01*
X642Y1369D01*
X644Y1369D01*
X644Y1367D01*
X646Y1367D01*
X646Y1363D01*
X648Y1363D01*
X648Y1359D01*
X668Y1359D01*
X668Y2301D01*
X280Y2301D01*
G37*
D02*
G36*
X40Y1793D02*
X40Y1703D01*
X222Y1703D01*
X222Y1705D01*
X216Y1705D01*
X216Y1707D01*
X212Y1707D01*
X212Y1709D01*
X210Y1709D01*
X210Y1711D01*
X206Y1711D01*
X206Y1713D01*
X204Y1713D01*
X204Y1715D01*
X202Y1715D01*
X202Y1717D01*
X200Y1717D01*
X200Y1719D01*
X198Y1719D01*
X198Y1721D01*
X196Y1721D01*
X196Y1723D01*
X194Y1723D01*
X194Y1727D01*
X192Y1727D01*
X192Y1731D01*
X190Y1731D01*
X190Y1735D01*
X188Y1735D01*
X188Y1741D01*
X186Y1741D01*
X186Y1755D01*
X188Y1755D01*
X188Y1761D01*
X190Y1761D01*
X190Y1765D01*
X192Y1765D01*
X192Y1769D01*
X194Y1769D01*
X194Y1771D01*
X196Y1771D01*
X196Y1775D01*
X198Y1775D01*
X198Y1777D01*
X200Y1777D01*
X200Y1779D01*
X202Y1779D01*
X202Y1781D01*
X204Y1781D01*
X204Y1783D01*
X206Y1783D01*
X206Y1785D01*
X210Y1785D01*
X210Y1787D01*
X214Y1787D01*
X214Y1789D01*
X218Y1789D01*
X218Y1791D01*
X224Y1791D01*
X224Y1793D01*
X40Y1793D01*
G37*
D02*
G36*
X238Y1793D02*
X238Y1791D01*
X246Y1791D01*
X246Y1789D01*
X250Y1789D01*
X250Y1787D01*
X252Y1787D01*
X252Y1785D01*
X256Y1785D01*
X256Y1783D01*
X258Y1783D01*
X258Y1781D01*
X260Y1781D01*
X260Y1779D01*
X262Y1779D01*
X262Y1777D01*
X264Y1777D01*
X264Y1775D01*
X266Y1775D01*
X266Y1773D01*
X268Y1773D01*
X268Y1771D01*
X270Y1771D01*
X270Y1767D01*
X272Y1767D01*
X272Y1765D01*
X292Y1765D01*
X292Y1769D01*
X294Y1769D01*
X294Y1771D01*
X296Y1771D01*
X296Y1775D01*
X298Y1775D01*
X298Y1777D01*
X300Y1777D01*
X300Y1779D01*
X302Y1779D01*
X302Y1781D01*
X304Y1781D01*
X304Y1783D01*
X306Y1783D01*
X306Y1785D01*
X310Y1785D01*
X310Y1787D01*
X314Y1787D01*
X314Y1789D01*
X318Y1789D01*
X318Y1791D01*
X324Y1791D01*
X324Y1793D01*
X238Y1793D01*
G37*
D02*
G36*
X338Y1793D02*
X338Y1791D01*
X346Y1791D01*
X346Y1789D01*
X350Y1789D01*
X350Y1787D01*
X352Y1787D01*
X352Y1785D01*
X356Y1785D01*
X356Y1783D01*
X358Y1783D01*
X358Y1781D01*
X360Y1781D01*
X360Y1779D01*
X362Y1779D01*
X362Y1777D01*
X364Y1777D01*
X364Y1775D01*
X366Y1775D01*
X366Y1773D01*
X368Y1773D01*
X368Y1771D01*
X370Y1771D01*
X370Y1767D01*
X372Y1767D01*
X372Y1765D01*
X392Y1765D01*
X392Y1769D01*
X394Y1769D01*
X394Y1771D01*
X396Y1771D01*
X396Y1775D01*
X398Y1775D01*
X398Y1777D01*
X400Y1777D01*
X400Y1779D01*
X402Y1779D01*
X402Y1781D01*
X404Y1781D01*
X404Y1783D01*
X406Y1783D01*
X406Y1785D01*
X410Y1785D01*
X410Y1787D01*
X414Y1787D01*
X414Y1789D01*
X418Y1789D01*
X418Y1791D01*
X424Y1791D01*
X424Y1793D01*
X338Y1793D01*
G37*
D02*
G36*
X272Y1731D02*
X272Y1729D01*
X270Y1729D01*
X270Y1725D01*
X268Y1725D01*
X268Y1723D01*
X266Y1723D01*
X266Y1721D01*
X264Y1721D01*
X264Y1717D01*
X262Y1717D01*
X262Y1715D01*
X258Y1715D01*
X258Y1713D01*
X256Y1713D01*
X256Y1711D01*
X254Y1711D01*
X254Y1709D01*
X250Y1709D01*
X250Y1707D01*
X246Y1707D01*
X246Y1705D01*
X240Y1705D01*
X240Y1703D01*
X322Y1703D01*
X322Y1705D01*
X316Y1705D01*
X316Y1707D01*
X312Y1707D01*
X312Y1709D01*
X310Y1709D01*
X310Y1711D01*
X306Y1711D01*
X306Y1713D01*
X304Y1713D01*
X304Y1715D01*
X302Y1715D01*
X302Y1717D01*
X300Y1717D01*
X300Y1719D01*
X298Y1719D01*
X298Y1721D01*
X296Y1721D01*
X296Y1723D01*
X294Y1723D01*
X294Y1727D01*
X292Y1727D01*
X292Y1731D01*
X272Y1731D01*
G37*
D02*
G36*
X372Y1731D02*
X372Y1729D01*
X370Y1729D01*
X370Y1725D01*
X368Y1725D01*
X368Y1723D01*
X366Y1723D01*
X366Y1721D01*
X364Y1721D01*
X364Y1717D01*
X362Y1717D01*
X362Y1715D01*
X358Y1715D01*
X358Y1713D01*
X356Y1713D01*
X356Y1711D01*
X354Y1711D01*
X354Y1709D01*
X350Y1709D01*
X350Y1707D01*
X346Y1707D01*
X346Y1705D01*
X340Y1705D01*
X340Y1703D01*
X422Y1703D01*
X422Y1705D01*
X416Y1705D01*
X416Y1707D01*
X412Y1707D01*
X412Y1709D01*
X410Y1709D01*
X410Y1711D01*
X406Y1711D01*
X406Y1713D01*
X404Y1713D01*
X404Y1715D01*
X402Y1715D01*
X402Y1717D01*
X400Y1717D01*
X400Y1719D01*
X398Y1719D01*
X398Y1721D01*
X396Y1721D01*
X396Y1723D01*
X394Y1723D01*
X394Y1727D01*
X392Y1727D01*
X392Y1731D01*
X372Y1731D01*
G37*
D02*
G36*
X40Y1703D02*
X40Y1701D01*
X530Y1701D01*
X530Y1703D01*
X40Y1703D01*
G37*
D02*
G36*
X40Y1703D02*
X40Y1701D01*
X530Y1701D01*
X530Y1703D01*
X40Y1703D01*
G37*
D02*
G36*
X40Y1703D02*
X40Y1701D01*
X530Y1701D01*
X530Y1703D01*
X40Y1703D01*
G37*
D02*
G36*
X40Y1703D02*
X40Y1701D01*
X530Y1701D01*
X530Y1703D01*
X40Y1703D01*
G37*
D02*
G36*
X40Y1701D02*
X40Y1447D01*
X318Y1447D01*
X318Y1387D01*
X518Y1387D01*
X518Y1385D01*
X524Y1385D01*
X524Y1383D01*
X528Y1383D01*
X528Y1381D01*
X532Y1381D01*
X532Y1379D01*
X534Y1379D01*
X534Y1377D01*
X536Y1377D01*
X536Y1375D01*
X538Y1375D01*
X538Y1373D01*
X540Y1373D01*
X540Y1371D01*
X542Y1371D01*
X542Y1369D01*
X544Y1369D01*
X544Y1367D01*
X546Y1367D01*
X546Y1363D01*
X548Y1363D01*
X548Y1359D01*
X568Y1359D01*
X568Y1363D01*
X570Y1363D01*
X570Y1365D01*
X572Y1365D01*
X572Y1369D01*
X574Y1369D01*
X574Y1371D01*
X576Y1371D01*
X576Y1373D01*
X578Y1373D01*
X578Y1375D01*
X580Y1375D01*
X580Y1377D01*
X582Y1377D01*
X582Y1379D01*
X586Y1379D01*
X586Y1595D01*
X584Y1595D01*
X584Y1599D01*
X582Y1599D01*
X582Y1603D01*
X580Y1603D01*
X580Y1607D01*
X578Y1607D01*
X578Y1611D01*
X576Y1611D01*
X576Y1615D01*
X574Y1615D01*
X574Y1619D01*
X572Y1619D01*
X572Y1623D01*
X570Y1623D01*
X570Y1627D01*
X568Y1627D01*
X568Y1631D01*
X566Y1631D01*
X566Y1635D01*
X564Y1635D01*
X564Y1639D01*
X562Y1639D01*
X562Y1643D01*
X560Y1643D01*
X560Y1647D01*
X558Y1647D01*
X558Y1651D01*
X556Y1651D01*
X556Y1655D01*
X554Y1655D01*
X554Y1659D01*
X552Y1659D01*
X552Y1661D01*
X550Y1661D01*
X550Y1665D01*
X548Y1665D01*
X548Y1669D01*
X546Y1669D01*
X546Y1673D01*
X544Y1673D01*
X544Y1677D01*
X542Y1677D01*
X542Y1681D01*
X540Y1681D01*
X540Y1685D01*
X538Y1685D01*
X538Y1689D01*
X536Y1689D01*
X536Y1693D01*
X534Y1693D01*
X534Y1697D01*
X532Y1697D01*
X532Y1701D01*
X40Y1701D01*
G37*
D02*
G36*
X40Y1447D02*
X40Y1125D01*
X268Y1125D01*
X268Y1127D01*
X262Y1127D01*
X262Y1129D01*
X256Y1129D01*
X256Y1131D01*
X254Y1131D01*
X254Y1133D01*
X250Y1133D01*
X250Y1135D01*
X248Y1135D01*
X248Y1137D01*
X246Y1137D01*
X246Y1139D01*
X244Y1139D01*
X244Y1141D01*
X242Y1141D01*
X242Y1143D01*
X240Y1143D01*
X240Y1145D01*
X238Y1145D01*
X238Y1147D01*
X236Y1147D01*
X236Y1151D01*
X234Y1151D01*
X234Y1155D01*
X232Y1155D01*
X232Y1159D01*
X230Y1159D01*
X230Y1181D01*
X232Y1181D01*
X232Y1187D01*
X234Y1187D01*
X234Y1191D01*
X236Y1191D01*
X236Y1193D01*
X238Y1193D01*
X238Y1197D01*
X240Y1197D01*
X240Y1199D01*
X242Y1199D01*
X242Y1201D01*
X244Y1201D01*
X244Y1203D01*
X246Y1203D01*
X246Y1205D01*
X248Y1205D01*
X248Y1207D01*
X252Y1207D01*
X252Y1227D01*
X250Y1227D01*
X250Y1251D01*
X246Y1251D01*
X246Y1253D01*
X244Y1253D01*
X244Y1255D01*
X242Y1255D01*
X242Y1257D01*
X240Y1257D01*
X240Y1259D01*
X238Y1259D01*
X238Y1261D01*
X236Y1261D01*
X236Y1263D01*
X234Y1263D01*
X234Y1265D01*
X232Y1265D01*
X232Y1269D01*
X230Y1269D01*
X230Y1273D01*
X228Y1273D01*
X228Y1277D01*
X226Y1277D01*
X226Y1287D01*
X224Y1287D01*
X224Y1295D01*
X226Y1295D01*
X226Y1303D01*
X228Y1303D01*
X228Y1309D01*
X230Y1309D01*
X230Y1311D01*
X232Y1311D01*
X232Y1315D01*
X234Y1315D01*
X234Y1317D01*
X236Y1317D01*
X236Y1321D01*
X238Y1321D01*
X238Y1323D01*
X240Y1323D01*
X240Y1325D01*
X242Y1325D01*
X242Y1327D01*
X246Y1327D01*
X246Y1329D01*
X248Y1329D01*
X248Y1331D01*
X252Y1331D01*
X252Y1333D01*
X256Y1333D01*
X256Y1353D01*
X226Y1353D01*
X226Y1355D01*
X224Y1355D01*
X224Y1447D01*
X40Y1447D01*
G37*
D02*
G36*
X318Y1387D02*
X318Y1353D01*
X288Y1353D01*
X288Y1333D01*
X292Y1333D01*
X292Y1331D01*
X296Y1331D01*
X296Y1329D01*
X298Y1329D01*
X298Y1327D01*
X300Y1327D01*
X300Y1325D01*
X302Y1325D01*
X302Y1323D01*
X304Y1323D01*
X304Y1321D01*
X306Y1321D01*
X306Y1319D01*
X308Y1319D01*
X308Y1317D01*
X310Y1317D01*
X310Y1315D01*
X312Y1315D01*
X312Y1311D01*
X314Y1311D01*
X314Y1307D01*
X316Y1307D01*
X316Y1301D01*
X318Y1301D01*
X318Y1297D01*
X504Y1297D01*
X504Y1299D01*
X496Y1299D01*
X496Y1301D01*
X492Y1301D01*
X492Y1303D01*
X488Y1303D01*
X488Y1305D01*
X484Y1305D01*
X484Y1307D01*
X482Y1307D01*
X482Y1309D01*
X480Y1309D01*
X480Y1311D01*
X478Y1311D01*
X478Y1313D01*
X476Y1313D01*
X476Y1315D01*
X474Y1315D01*
X474Y1317D01*
X472Y1317D01*
X472Y1319D01*
X470Y1319D01*
X470Y1323D01*
X468Y1323D01*
X468Y1327D01*
X466Y1327D01*
X466Y1331D01*
X464Y1331D01*
X464Y1353D01*
X466Y1353D01*
X466Y1359D01*
X468Y1359D01*
X468Y1363D01*
X470Y1363D01*
X470Y1365D01*
X472Y1365D01*
X472Y1369D01*
X474Y1369D01*
X474Y1371D01*
X476Y1371D01*
X476Y1373D01*
X478Y1373D01*
X478Y1375D01*
X480Y1375D01*
X480Y1377D01*
X482Y1377D01*
X482Y1379D01*
X486Y1379D01*
X486Y1381D01*
X488Y1381D01*
X488Y1383D01*
X492Y1383D01*
X492Y1385D01*
X498Y1385D01*
X498Y1387D01*
X318Y1387D01*
G37*
D02*
G36*
X548Y1325D02*
X548Y1323D01*
X546Y1323D01*
X546Y1319D01*
X544Y1319D01*
X544Y1317D01*
X542Y1317D01*
X542Y1315D01*
X540Y1315D01*
X540Y1311D01*
X536Y1311D01*
X536Y1309D01*
X534Y1309D01*
X534Y1307D01*
X532Y1307D01*
X532Y1305D01*
X528Y1305D01*
X528Y1303D01*
X526Y1303D01*
X526Y1301D01*
X520Y1301D01*
X520Y1299D01*
X512Y1299D01*
X512Y1297D01*
X580Y1297D01*
X580Y1311D01*
X578Y1311D01*
X578Y1313D01*
X576Y1313D01*
X576Y1315D01*
X574Y1315D01*
X574Y1317D01*
X572Y1317D01*
X572Y1319D01*
X570Y1319D01*
X570Y1323D01*
X568Y1323D01*
X568Y1325D01*
X548Y1325D01*
G37*
D02*
G36*
X318Y1297D02*
X318Y1295D01*
X580Y1295D01*
X580Y1297D01*
X318Y1297D01*
G37*
D02*
G36*
X318Y1297D02*
X318Y1295D01*
X580Y1295D01*
X580Y1297D01*
X318Y1297D01*
G37*
D02*
G36*
X318Y1295D02*
X318Y1279D01*
X316Y1279D01*
X316Y1275D01*
X314Y1275D01*
X314Y1271D01*
X312Y1271D01*
X312Y1267D01*
X310Y1267D01*
X310Y1265D01*
X308Y1265D01*
X308Y1261D01*
X306Y1261D01*
X306Y1259D01*
X304Y1259D01*
X304Y1257D01*
X302Y1257D01*
X302Y1255D01*
X300Y1255D01*
X300Y1253D01*
X296Y1253D01*
X296Y1251D01*
X294Y1251D01*
X294Y1227D01*
X296Y1227D01*
X296Y1215D01*
X384Y1215D01*
X384Y1213D01*
X390Y1213D01*
X390Y1211D01*
X394Y1211D01*
X394Y1209D01*
X398Y1209D01*
X398Y1207D01*
X400Y1207D01*
X400Y1205D01*
X402Y1205D01*
X402Y1203D01*
X404Y1203D01*
X404Y1201D01*
X406Y1201D01*
X406Y1199D01*
X408Y1199D01*
X408Y1197D01*
X410Y1197D01*
X410Y1195D01*
X412Y1195D01*
X412Y1191D01*
X414Y1191D01*
X414Y1187D01*
X416Y1187D01*
X416Y1183D01*
X418Y1183D01*
X418Y1175D01*
X420Y1175D01*
X420Y1165D01*
X418Y1165D01*
X418Y1157D01*
X416Y1157D01*
X416Y1153D01*
X414Y1153D01*
X414Y1149D01*
X412Y1149D01*
X412Y1147D01*
X410Y1147D01*
X410Y1145D01*
X408Y1145D01*
X408Y1141D01*
X406Y1141D01*
X406Y1139D01*
X404Y1139D01*
X404Y1137D01*
X400Y1137D01*
X400Y1135D01*
X398Y1135D01*
X398Y1133D01*
X396Y1133D01*
X396Y1131D01*
X392Y1131D01*
X392Y1129D01*
X388Y1129D01*
X388Y1127D01*
X380Y1127D01*
X380Y1125D01*
X564Y1125D01*
X564Y1129D01*
X566Y1129D01*
X566Y1149D01*
X568Y1149D01*
X568Y1169D01*
X570Y1169D01*
X570Y1189D01*
X572Y1189D01*
X572Y1209D01*
X574Y1209D01*
X574Y1229D01*
X576Y1229D01*
X576Y1249D01*
X578Y1249D01*
X578Y1271D01*
X580Y1271D01*
X580Y1295D01*
X318Y1295D01*
G37*
D02*
G36*
X296Y1215D02*
X296Y1207D01*
X300Y1207D01*
X300Y1205D01*
X302Y1205D01*
X302Y1203D01*
X304Y1203D01*
X304Y1201D01*
X306Y1201D01*
X306Y1199D01*
X308Y1199D01*
X308Y1197D01*
X310Y1197D01*
X310Y1195D01*
X312Y1195D01*
X312Y1191D01*
X314Y1191D01*
X314Y1187D01*
X334Y1187D01*
X334Y1191D01*
X336Y1191D01*
X336Y1193D01*
X338Y1193D01*
X338Y1197D01*
X340Y1197D01*
X340Y1199D01*
X342Y1199D01*
X342Y1201D01*
X344Y1201D01*
X344Y1203D01*
X346Y1203D01*
X346Y1205D01*
X348Y1205D01*
X348Y1207D01*
X352Y1207D01*
X352Y1209D01*
X354Y1209D01*
X354Y1211D01*
X358Y1211D01*
X358Y1213D01*
X364Y1213D01*
X364Y1215D01*
X296Y1215D01*
G37*
D02*
G36*
X314Y1153D02*
X314Y1151D01*
X312Y1151D01*
X312Y1147D01*
X310Y1147D01*
X310Y1145D01*
X308Y1145D01*
X308Y1141D01*
X306Y1141D01*
X306Y1139D01*
X304Y1139D01*
X304Y1137D01*
X300Y1137D01*
X300Y1135D01*
X298Y1135D01*
X298Y1133D01*
X296Y1133D01*
X296Y1131D01*
X292Y1131D01*
X292Y1129D01*
X286Y1129D01*
X286Y1127D01*
X280Y1127D01*
X280Y1125D01*
X370Y1125D01*
X370Y1127D01*
X362Y1127D01*
X362Y1129D01*
X358Y1129D01*
X358Y1131D01*
X354Y1131D01*
X354Y1133D01*
X350Y1133D01*
X350Y1135D01*
X348Y1135D01*
X348Y1137D01*
X346Y1137D01*
X346Y1139D01*
X344Y1139D01*
X344Y1141D01*
X342Y1141D01*
X342Y1143D01*
X340Y1143D01*
X340Y1145D01*
X338Y1145D01*
X338Y1147D01*
X336Y1147D01*
X336Y1151D01*
X334Y1151D01*
X334Y1153D01*
X314Y1153D01*
G37*
D02*
G36*
X40Y1125D02*
X40Y1123D01*
X564Y1123D01*
X564Y1125D01*
X40Y1125D01*
G37*
D02*
G36*
X40Y1125D02*
X40Y1123D01*
X564Y1123D01*
X564Y1125D01*
X40Y1125D01*
G37*
D02*
G36*
X40Y1125D02*
X40Y1123D01*
X564Y1123D01*
X564Y1125D01*
X40Y1125D01*
G37*
D02*
G36*
X40Y1123D02*
X40Y991D01*
X434Y991D01*
X434Y989D01*
X444Y989D01*
X444Y987D01*
X448Y987D01*
X448Y985D01*
X452Y985D01*
X452Y983D01*
X454Y983D01*
X454Y981D01*
X458Y981D01*
X458Y979D01*
X460Y979D01*
X460Y977D01*
X462Y977D01*
X462Y975D01*
X464Y975D01*
X464Y973D01*
X466Y973D01*
X466Y971D01*
X468Y971D01*
X468Y967D01*
X470Y967D01*
X470Y965D01*
X472Y965D01*
X472Y961D01*
X474Y961D01*
X474Y955D01*
X476Y955D01*
X476Y935D01*
X474Y935D01*
X474Y929D01*
X472Y929D01*
X472Y925D01*
X470Y925D01*
X470Y923D01*
X468Y923D01*
X468Y919D01*
X466Y919D01*
X466Y917D01*
X464Y917D01*
X464Y915D01*
X462Y915D01*
X462Y913D01*
X460Y913D01*
X460Y911D01*
X458Y911D01*
X458Y909D01*
X454Y909D01*
X454Y907D01*
X452Y907D01*
X452Y905D01*
X448Y905D01*
X448Y903D01*
X442Y903D01*
X442Y901D01*
X542Y901D01*
X542Y907D01*
X544Y907D01*
X544Y927D01*
X546Y927D01*
X546Y947D01*
X548Y947D01*
X548Y967D01*
X550Y967D01*
X550Y987D01*
X552Y987D01*
X552Y1007D01*
X554Y1007D01*
X554Y1027D01*
X556Y1027D01*
X556Y1049D01*
X558Y1049D01*
X558Y1069D01*
X560Y1069D01*
X560Y1089D01*
X562Y1089D01*
X562Y1109D01*
X564Y1109D01*
X564Y1123D01*
X40Y1123D01*
G37*
D02*
G36*
X40Y991D02*
X40Y901D01*
X220Y901D01*
X220Y903D01*
X216Y903D01*
X216Y905D01*
X212Y905D01*
X212Y907D01*
X208Y907D01*
X208Y909D01*
X206Y909D01*
X206Y911D01*
X204Y911D01*
X204Y913D01*
X200Y913D01*
X200Y917D01*
X198Y917D01*
X198Y919D01*
X196Y919D01*
X196Y921D01*
X194Y921D01*
X194Y923D01*
X192Y923D01*
X192Y927D01*
X190Y927D01*
X190Y931D01*
X188Y931D01*
X188Y939D01*
X186Y939D01*
X186Y951D01*
X188Y951D01*
X188Y959D01*
X190Y959D01*
X190Y963D01*
X192Y963D01*
X192Y967D01*
X194Y967D01*
X194Y969D01*
X196Y969D01*
X196Y971D01*
X198Y971D01*
X198Y975D01*
X200Y975D01*
X200Y977D01*
X202Y977D01*
X202Y979D01*
X206Y979D01*
X206Y981D01*
X208Y981D01*
X208Y983D01*
X210Y983D01*
X210Y985D01*
X214Y985D01*
X214Y987D01*
X220Y987D01*
X220Y989D01*
X228Y989D01*
X228Y991D01*
X40Y991D01*
G37*
D02*
G36*
X234Y991D02*
X234Y989D01*
X244Y989D01*
X244Y987D01*
X248Y987D01*
X248Y985D01*
X252Y985D01*
X252Y983D01*
X254Y983D01*
X254Y981D01*
X258Y981D01*
X258Y979D01*
X260Y979D01*
X260Y977D01*
X262Y977D01*
X262Y975D01*
X264Y975D01*
X264Y973D01*
X266Y973D01*
X266Y971D01*
X268Y971D01*
X268Y967D01*
X270Y967D01*
X270Y965D01*
X272Y965D01*
X272Y961D01*
X274Y961D01*
X274Y955D01*
X276Y955D01*
X276Y935D01*
X274Y935D01*
X274Y929D01*
X272Y929D01*
X272Y925D01*
X270Y925D01*
X270Y923D01*
X268Y923D01*
X268Y919D01*
X266Y919D01*
X266Y917D01*
X264Y917D01*
X264Y915D01*
X262Y915D01*
X262Y913D01*
X260Y913D01*
X260Y911D01*
X258Y911D01*
X258Y909D01*
X254Y909D01*
X254Y907D01*
X252Y907D01*
X252Y905D01*
X248Y905D01*
X248Y903D01*
X242Y903D01*
X242Y901D01*
X420Y901D01*
X420Y903D01*
X416Y903D01*
X416Y905D01*
X412Y905D01*
X412Y907D01*
X408Y907D01*
X408Y909D01*
X406Y909D01*
X406Y911D01*
X404Y911D01*
X404Y913D01*
X400Y913D01*
X400Y917D01*
X398Y917D01*
X398Y919D01*
X396Y919D01*
X396Y921D01*
X394Y921D01*
X394Y923D01*
X392Y923D01*
X392Y927D01*
X390Y927D01*
X390Y931D01*
X388Y931D01*
X388Y939D01*
X386Y939D01*
X386Y951D01*
X388Y951D01*
X388Y959D01*
X390Y959D01*
X390Y963D01*
X392Y963D01*
X392Y967D01*
X394Y967D01*
X394Y969D01*
X396Y969D01*
X396Y971D01*
X398Y971D01*
X398Y975D01*
X400Y975D01*
X400Y977D01*
X402Y977D01*
X402Y979D01*
X406Y979D01*
X406Y981D01*
X408Y981D01*
X408Y983D01*
X410Y983D01*
X410Y985D01*
X414Y985D01*
X414Y987D01*
X420Y987D01*
X420Y989D01*
X428Y989D01*
X428Y991D01*
X234Y991D01*
G37*
D02*
G36*
X40Y901D02*
X40Y899D01*
X542Y899D01*
X542Y901D01*
X40Y901D01*
G37*
D02*
G36*
X40Y901D02*
X40Y899D01*
X542Y899D01*
X542Y901D01*
X40Y901D01*
G37*
D02*
G36*
X40Y901D02*
X40Y899D01*
X542Y899D01*
X542Y901D01*
X40Y901D01*
G37*
D02*
G36*
X40Y899D02*
X40Y391D01*
X434Y391D01*
X434Y389D01*
X444Y389D01*
X444Y387D01*
X448Y387D01*
X448Y385D01*
X452Y385D01*
X452Y383D01*
X454Y383D01*
X454Y381D01*
X458Y381D01*
X458Y379D01*
X460Y379D01*
X460Y377D01*
X462Y377D01*
X462Y375D01*
X464Y375D01*
X464Y373D01*
X466Y373D01*
X466Y371D01*
X468Y371D01*
X468Y367D01*
X470Y367D01*
X470Y365D01*
X490Y365D01*
X490Y383D01*
X492Y383D01*
X492Y403D01*
X494Y403D01*
X494Y423D01*
X496Y423D01*
X496Y443D01*
X498Y443D01*
X498Y463D01*
X500Y463D01*
X500Y483D01*
X502Y483D01*
X502Y503D01*
X504Y503D01*
X504Y523D01*
X506Y523D01*
X506Y543D01*
X508Y543D01*
X508Y563D01*
X510Y563D01*
X510Y585D01*
X512Y585D01*
X512Y605D01*
X514Y605D01*
X514Y625D01*
X516Y625D01*
X516Y645D01*
X518Y645D01*
X518Y665D01*
X520Y665D01*
X520Y685D01*
X522Y685D01*
X522Y705D01*
X524Y705D01*
X524Y725D01*
X526Y725D01*
X526Y745D01*
X528Y745D01*
X528Y765D01*
X530Y765D01*
X530Y785D01*
X532Y785D01*
X532Y805D01*
X534Y805D01*
X534Y827D01*
X536Y827D01*
X536Y847D01*
X538Y847D01*
X538Y867D01*
X540Y867D01*
X540Y887D01*
X542Y887D01*
X542Y899D01*
X40Y899D01*
G37*
D02*
G36*
X40Y391D02*
X40Y301D01*
X220Y301D01*
X220Y303D01*
X216Y303D01*
X216Y305D01*
X212Y305D01*
X212Y307D01*
X208Y307D01*
X208Y309D01*
X206Y309D01*
X206Y311D01*
X204Y311D01*
X204Y313D01*
X200Y313D01*
X200Y317D01*
X198Y317D01*
X198Y319D01*
X196Y319D01*
X196Y321D01*
X194Y321D01*
X194Y323D01*
X192Y323D01*
X192Y327D01*
X190Y327D01*
X190Y331D01*
X188Y331D01*
X188Y339D01*
X186Y339D01*
X186Y351D01*
X188Y351D01*
X188Y359D01*
X190Y359D01*
X190Y363D01*
X192Y363D01*
X192Y367D01*
X194Y367D01*
X194Y369D01*
X196Y369D01*
X196Y371D01*
X198Y371D01*
X198Y375D01*
X200Y375D01*
X200Y377D01*
X202Y377D01*
X202Y379D01*
X206Y379D01*
X206Y381D01*
X208Y381D01*
X208Y383D01*
X210Y383D01*
X210Y385D01*
X214Y385D01*
X214Y387D01*
X220Y387D01*
X220Y389D01*
X228Y389D01*
X228Y391D01*
X40Y391D01*
G37*
D02*
G36*
X234Y391D02*
X234Y389D01*
X244Y389D01*
X244Y387D01*
X248Y387D01*
X248Y385D01*
X252Y385D01*
X252Y383D01*
X254Y383D01*
X254Y381D01*
X258Y381D01*
X258Y379D01*
X260Y379D01*
X260Y377D01*
X262Y377D01*
X262Y375D01*
X264Y375D01*
X264Y373D01*
X266Y373D01*
X266Y371D01*
X268Y371D01*
X268Y367D01*
X270Y367D01*
X270Y365D01*
X272Y365D01*
X272Y363D01*
X292Y363D01*
X292Y367D01*
X294Y367D01*
X294Y369D01*
X296Y369D01*
X296Y371D01*
X298Y371D01*
X298Y375D01*
X300Y375D01*
X300Y377D01*
X302Y377D01*
X302Y379D01*
X306Y379D01*
X306Y381D01*
X308Y381D01*
X308Y383D01*
X310Y383D01*
X310Y385D01*
X314Y385D01*
X314Y387D01*
X320Y387D01*
X320Y389D01*
X328Y389D01*
X328Y391D01*
X234Y391D01*
G37*
D02*
G36*
X334Y391D02*
X334Y389D01*
X344Y389D01*
X344Y387D01*
X348Y387D01*
X348Y385D01*
X352Y385D01*
X352Y383D01*
X354Y383D01*
X354Y381D01*
X358Y381D01*
X358Y379D01*
X360Y379D01*
X360Y377D01*
X362Y377D01*
X362Y375D01*
X364Y375D01*
X364Y373D01*
X366Y373D01*
X366Y371D01*
X368Y371D01*
X368Y367D01*
X370Y367D01*
X370Y365D01*
X372Y365D01*
X372Y363D01*
X392Y363D01*
X392Y367D01*
X394Y367D01*
X394Y369D01*
X396Y369D01*
X396Y371D01*
X398Y371D01*
X398Y375D01*
X400Y375D01*
X400Y377D01*
X402Y377D01*
X402Y379D01*
X406Y379D01*
X406Y381D01*
X408Y381D01*
X408Y383D01*
X410Y383D01*
X410Y385D01*
X414Y385D01*
X414Y387D01*
X420Y387D01*
X420Y389D01*
X428Y389D01*
X428Y391D01*
X334Y391D01*
G37*
D02*
G36*
X272Y327D02*
X272Y325D01*
X270Y325D01*
X270Y323D01*
X268Y323D01*
X268Y319D01*
X266Y319D01*
X266Y317D01*
X264Y317D01*
X264Y315D01*
X262Y315D01*
X262Y313D01*
X260Y313D01*
X260Y311D01*
X258Y311D01*
X258Y309D01*
X254Y309D01*
X254Y307D01*
X252Y307D01*
X252Y305D01*
X248Y305D01*
X248Y303D01*
X242Y303D01*
X242Y301D01*
X320Y301D01*
X320Y303D01*
X316Y303D01*
X316Y305D01*
X312Y305D01*
X312Y307D01*
X308Y307D01*
X308Y309D01*
X306Y309D01*
X306Y311D01*
X304Y311D01*
X304Y313D01*
X300Y313D01*
X300Y317D01*
X298Y317D01*
X298Y319D01*
X296Y319D01*
X296Y321D01*
X294Y321D01*
X294Y323D01*
X292Y323D01*
X292Y327D01*
X272Y327D01*
G37*
D02*
G36*
X372Y327D02*
X372Y325D01*
X370Y325D01*
X370Y323D01*
X368Y323D01*
X368Y319D01*
X366Y319D01*
X366Y317D01*
X364Y317D01*
X364Y315D01*
X362Y315D01*
X362Y313D01*
X360Y313D01*
X360Y311D01*
X358Y311D01*
X358Y309D01*
X354Y309D01*
X354Y307D01*
X352Y307D01*
X352Y305D01*
X348Y305D01*
X348Y303D01*
X342Y303D01*
X342Y301D01*
X420Y301D01*
X420Y303D01*
X416Y303D01*
X416Y305D01*
X412Y305D01*
X412Y307D01*
X408Y307D01*
X408Y309D01*
X406Y309D01*
X406Y311D01*
X404Y311D01*
X404Y313D01*
X400Y313D01*
X400Y317D01*
X398Y317D01*
X398Y319D01*
X396Y319D01*
X396Y321D01*
X394Y321D01*
X394Y323D01*
X392Y323D01*
X392Y327D01*
X372Y327D01*
G37*
D02*
G36*
X464Y317D02*
X464Y315D01*
X462Y315D01*
X462Y313D01*
X460Y313D01*
X460Y311D01*
X458Y311D01*
X458Y309D01*
X454Y309D01*
X454Y307D01*
X452Y307D01*
X452Y305D01*
X448Y305D01*
X448Y303D01*
X442Y303D01*
X442Y301D01*
X484Y301D01*
X484Y317D01*
X464Y317D01*
G37*
D02*
G36*
X40Y301D02*
X40Y299D01*
X482Y299D01*
X482Y301D01*
X40Y301D01*
G37*
D02*
G36*
X40Y301D02*
X40Y299D01*
X482Y299D01*
X482Y301D01*
X40Y301D01*
G37*
D02*
G36*
X40Y301D02*
X40Y299D01*
X482Y299D01*
X482Y301D01*
X40Y301D01*
G37*
D02*
G36*
X40Y301D02*
X40Y299D01*
X482Y299D01*
X482Y301D01*
X40Y301D01*
G37*
D02*
G36*
X40Y299D02*
X40Y203D01*
X92Y203D01*
X92Y201D01*
X102Y201D01*
X102Y199D01*
X108Y199D01*
X108Y197D01*
X112Y197D01*
X112Y195D01*
X114Y195D01*
X114Y193D01*
X192Y193D01*
X192Y191D01*
X202Y191D01*
X202Y189D01*
X208Y189D01*
X208Y187D01*
X212Y187D01*
X212Y185D01*
X214Y185D01*
X214Y183D01*
X218Y183D01*
X218Y181D01*
X220Y181D01*
X220Y179D01*
X222Y179D01*
X222Y177D01*
X224Y177D01*
X224Y175D01*
X226Y175D01*
X226Y173D01*
X248Y173D01*
X248Y175D01*
X250Y175D01*
X250Y179D01*
X252Y179D01*
X252Y181D01*
X254Y181D01*
X254Y185D01*
X256Y185D01*
X256Y187D01*
X258Y187D01*
X258Y189D01*
X260Y189D01*
X260Y191D01*
X262Y191D01*
X262Y193D01*
X266Y193D01*
X266Y195D01*
X268Y195D01*
X268Y197D01*
X272Y197D01*
X272Y199D01*
X278Y199D01*
X278Y201D01*
X280Y201D01*
X280Y207D01*
X282Y207D01*
X282Y215D01*
X284Y215D01*
X284Y223D01*
X286Y223D01*
X286Y229D01*
X288Y229D01*
X288Y237D01*
X290Y237D01*
X290Y241D01*
X292Y241D01*
X292Y243D01*
X294Y243D01*
X294Y245D01*
X296Y245D01*
X296Y247D01*
X300Y247D01*
X300Y249D01*
X306Y249D01*
X306Y251D01*
X316Y251D01*
X316Y253D01*
X324Y253D01*
X324Y255D01*
X334Y255D01*
X334Y257D01*
X342Y257D01*
X342Y259D01*
X350Y259D01*
X350Y261D01*
X360Y261D01*
X360Y263D01*
X368Y263D01*
X368Y265D01*
X378Y265D01*
X378Y267D01*
X386Y267D01*
X386Y269D01*
X394Y269D01*
X394Y271D01*
X404Y271D01*
X404Y273D01*
X412Y273D01*
X412Y275D01*
X422Y275D01*
X422Y277D01*
X430Y277D01*
X430Y279D01*
X438Y279D01*
X438Y281D01*
X448Y281D01*
X448Y283D01*
X456Y283D01*
X456Y285D01*
X466Y285D01*
X466Y287D01*
X474Y287D01*
X474Y289D01*
X482Y289D01*
X482Y299D01*
X40Y299D01*
G37*
D02*
G36*
X40Y203D02*
X40Y189D01*
X60Y189D01*
X60Y191D01*
X62Y191D01*
X62Y193D01*
X66Y193D01*
X66Y195D01*
X68Y195D01*
X68Y197D01*
X72Y197D01*
X72Y199D01*
X78Y199D01*
X78Y201D01*
X88Y201D01*
X88Y203D01*
X40Y203D01*
G37*
D02*
G36*
X118Y193D02*
X118Y191D01*
X120Y191D01*
X120Y189D01*
X122Y189D01*
X122Y187D01*
X124Y187D01*
X124Y185D01*
X126Y185D01*
X126Y183D01*
X128Y183D01*
X128Y179D01*
X130Y179D01*
X130Y177D01*
X132Y177D01*
X132Y173D01*
X134Y173D01*
X134Y171D01*
X154Y171D01*
X154Y175D01*
X156Y175D01*
X156Y177D01*
X158Y177D01*
X158Y179D01*
X160Y179D01*
X160Y181D01*
X162Y181D01*
X162Y183D01*
X166Y183D01*
X166Y185D01*
X168Y185D01*
X168Y187D01*
X172Y187D01*
X172Y189D01*
X178Y189D01*
X178Y191D01*
X188Y191D01*
X188Y193D01*
X118Y193D01*
G37*
D02*
G36*
X648Y1325D02*
X648Y1321D01*
X646Y1321D01*
X646Y1319D01*
X644Y1319D01*
X644Y1317D01*
X642Y1317D01*
X642Y1313D01*
X640Y1313D01*
X640Y1311D01*
X638Y1311D01*
X638Y1309D01*
X634Y1309D01*
X634Y1307D01*
X632Y1307D01*
X632Y1305D01*
X630Y1305D01*
X630Y1303D01*
X626Y1303D01*
X626Y1287D01*
X624Y1287D01*
X624Y1267D01*
X622Y1267D01*
X622Y1247D01*
X620Y1247D01*
X620Y1227D01*
X618Y1227D01*
X618Y1207D01*
X616Y1207D01*
X616Y1187D01*
X614Y1187D01*
X614Y1167D01*
X612Y1167D01*
X612Y1147D01*
X610Y1147D01*
X610Y1127D01*
X608Y1127D01*
X608Y1107D01*
X606Y1107D01*
X606Y1085D01*
X604Y1085D01*
X604Y1065D01*
X602Y1065D01*
X602Y1045D01*
X600Y1045D01*
X600Y1025D01*
X598Y1025D01*
X598Y1005D01*
X596Y1005D01*
X596Y985D01*
X594Y985D01*
X594Y965D01*
X592Y965D01*
X592Y945D01*
X590Y945D01*
X590Y925D01*
X588Y925D01*
X588Y905D01*
X586Y905D01*
X586Y885D01*
X584Y885D01*
X584Y865D01*
X582Y865D01*
X582Y843D01*
X580Y843D01*
X580Y823D01*
X578Y823D01*
X578Y803D01*
X576Y803D01*
X576Y783D01*
X574Y783D01*
X574Y763D01*
X572Y763D01*
X572Y743D01*
X570Y743D01*
X570Y723D01*
X568Y723D01*
X568Y703D01*
X566Y703D01*
X566Y683D01*
X564Y683D01*
X564Y663D01*
X562Y663D01*
X562Y643D01*
X560Y643D01*
X560Y623D01*
X558Y623D01*
X558Y601D01*
X556Y601D01*
X556Y581D01*
X554Y581D01*
X554Y561D01*
X552Y561D01*
X552Y541D01*
X550Y541D01*
X550Y521D01*
X548Y521D01*
X548Y501D01*
X546Y501D01*
X546Y481D01*
X544Y481D01*
X544Y461D01*
X542Y461D01*
X542Y441D01*
X540Y441D01*
X540Y421D01*
X538Y421D01*
X538Y401D01*
X536Y401D01*
X536Y379D01*
X534Y379D01*
X534Y359D01*
X532Y359D01*
X532Y339D01*
X530Y339D01*
X530Y319D01*
X528Y319D01*
X528Y299D01*
X526Y299D01*
X526Y279D01*
X524Y279D01*
X524Y265D01*
X522Y265D01*
X522Y261D01*
X520Y261D01*
X520Y257D01*
X518Y257D01*
X518Y255D01*
X516Y255D01*
X516Y253D01*
X512Y253D01*
X512Y251D01*
X506Y251D01*
X506Y249D01*
X496Y249D01*
X496Y247D01*
X488Y247D01*
X488Y245D01*
X480Y245D01*
X480Y243D01*
X470Y243D01*
X470Y241D01*
X462Y241D01*
X462Y239D01*
X452Y239D01*
X452Y237D01*
X444Y237D01*
X444Y235D01*
X436Y235D01*
X436Y233D01*
X426Y233D01*
X426Y231D01*
X418Y231D01*
X418Y229D01*
X408Y229D01*
X408Y227D01*
X400Y227D01*
X400Y225D01*
X392Y225D01*
X392Y223D01*
X382Y223D01*
X382Y221D01*
X374Y221D01*
X374Y219D01*
X364Y219D01*
X364Y217D01*
X356Y217D01*
X356Y215D01*
X348Y215D01*
X348Y213D01*
X338Y213D01*
X338Y211D01*
X330Y211D01*
X330Y209D01*
X326Y209D01*
X326Y203D01*
X492Y203D01*
X492Y201D01*
X502Y201D01*
X502Y199D01*
X508Y199D01*
X508Y197D01*
X512Y197D01*
X512Y195D01*
X514Y195D01*
X514Y193D01*
X592Y193D01*
X592Y191D01*
X602Y191D01*
X602Y189D01*
X608Y189D01*
X608Y187D01*
X612Y187D01*
X612Y185D01*
X614Y185D01*
X614Y183D01*
X618Y183D01*
X618Y181D01*
X620Y181D01*
X620Y179D01*
X622Y179D01*
X622Y177D01*
X624Y177D01*
X624Y175D01*
X626Y175D01*
X626Y173D01*
X628Y173D01*
X628Y169D01*
X630Y169D01*
X630Y167D01*
X632Y167D01*
X632Y163D01*
X634Y163D01*
X634Y157D01*
X636Y157D01*
X636Y147D01*
X638Y147D01*
X638Y143D01*
X636Y143D01*
X636Y133D01*
X634Y133D01*
X634Y127D01*
X632Y127D01*
X632Y125D01*
X630Y125D01*
X630Y121D01*
X628Y121D01*
X628Y119D01*
X626Y119D01*
X626Y115D01*
X624Y115D01*
X624Y113D01*
X622Y113D01*
X622Y111D01*
X620Y111D01*
X620Y109D01*
X616Y109D01*
X616Y107D01*
X614Y107D01*
X614Y105D01*
X610Y105D01*
X610Y103D01*
X606Y103D01*
X606Y101D01*
X602Y101D01*
X602Y99D01*
X668Y99D01*
X668Y1325D01*
X648Y1325D01*
G37*
D02*
G36*
X326Y203D02*
X326Y193D01*
X392Y193D01*
X392Y191D01*
X402Y191D01*
X402Y189D01*
X408Y189D01*
X408Y187D01*
X412Y187D01*
X412Y185D01*
X414Y185D01*
X414Y183D01*
X418Y183D01*
X418Y181D01*
X420Y181D01*
X420Y179D01*
X422Y179D01*
X422Y177D01*
X424Y177D01*
X424Y175D01*
X426Y175D01*
X426Y173D01*
X448Y173D01*
X448Y175D01*
X450Y175D01*
X450Y179D01*
X452Y179D01*
X452Y181D01*
X454Y181D01*
X454Y185D01*
X456Y185D01*
X456Y187D01*
X458Y187D01*
X458Y189D01*
X460Y189D01*
X460Y191D01*
X462Y191D01*
X462Y193D01*
X466Y193D01*
X466Y195D01*
X468Y195D01*
X468Y197D01*
X472Y197D01*
X472Y199D01*
X478Y199D01*
X478Y201D01*
X488Y201D01*
X488Y203D01*
X326Y203D01*
G37*
D02*
G36*
X326Y193D02*
X326Y183D01*
X328Y183D01*
X328Y179D01*
X330Y179D01*
X330Y177D01*
X332Y177D01*
X332Y173D01*
X334Y173D01*
X334Y171D01*
X354Y171D01*
X354Y175D01*
X356Y175D01*
X356Y177D01*
X358Y177D01*
X358Y179D01*
X360Y179D01*
X360Y181D01*
X362Y181D01*
X362Y183D01*
X366Y183D01*
X366Y185D01*
X368Y185D01*
X368Y187D01*
X372Y187D01*
X372Y189D01*
X378Y189D01*
X378Y191D01*
X388Y191D01*
X388Y193D01*
X326Y193D01*
G37*
D02*
G36*
X518Y193D02*
X518Y191D01*
X520Y191D01*
X520Y189D01*
X522Y189D01*
X522Y187D01*
X524Y187D01*
X524Y185D01*
X526Y185D01*
X526Y183D01*
X528Y183D01*
X528Y179D01*
X530Y179D01*
X530Y177D01*
X532Y177D01*
X532Y173D01*
X534Y173D01*
X534Y171D01*
X554Y171D01*
X554Y175D01*
X556Y175D01*
X556Y177D01*
X558Y177D01*
X558Y179D01*
X560Y179D01*
X560Y181D01*
X562Y181D01*
X562Y183D01*
X566Y183D01*
X566Y185D01*
X568Y185D01*
X568Y187D01*
X572Y187D01*
X572Y189D01*
X578Y189D01*
X578Y191D01*
X588Y191D01*
X588Y193D01*
X518Y193D01*
G37*
D02*
G36*
X126Y129D02*
X126Y125D01*
X124Y125D01*
X124Y123D01*
X122Y123D01*
X122Y121D01*
X120Y121D01*
X120Y119D01*
X116Y119D01*
X116Y117D01*
X114Y117D01*
X114Y115D01*
X110Y115D01*
X110Y113D01*
X106Y113D01*
X106Y111D01*
X102Y111D01*
X102Y109D01*
X160Y109D01*
X160Y111D01*
X158Y111D01*
X158Y113D01*
X156Y113D01*
X156Y115D01*
X154Y115D01*
X154Y119D01*
X152Y119D01*
X152Y121D01*
X150Y121D01*
X150Y125D01*
X148Y125D01*
X148Y129D01*
X126Y129D01*
G37*
D02*
G36*
X234Y129D02*
X234Y127D01*
X232Y127D01*
X232Y125D01*
X230Y125D01*
X230Y121D01*
X228Y121D01*
X228Y119D01*
X226Y119D01*
X226Y115D01*
X224Y115D01*
X224Y113D01*
X222Y113D01*
X222Y111D01*
X220Y111D01*
X220Y109D01*
X278Y109D01*
X278Y111D01*
X274Y111D01*
X274Y113D01*
X270Y113D01*
X270Y115D01*
X266Y115D01*
X266Y117D01*
X264Y117D01*
X264Y119D01*
X260Y119D01*
X260Y121D01*
X258Y121D01*
X258Y123D01*
X256Y123D01*
X256Y125D01*
X254Y125D01*
X254Y129D01*
X234Y129D01*
G37*
D02*
G36*
X326Y129D02*
X326Y125D01*
X324Y125D01*
X324Y123D01*
X322Y123D01*
X322Y121D01*
X320Y121D01*
X320Y119D01*
X316Y119D01*
X316Y117D01*
X314Y117D01*
X314Y115D01*
X310Y115D01*
X310Y113D01*
X306Y113D01*
X306Y111D01*
X302Y111D01*
X302Y109D01*
X360Y109D01*
X360Y111D01*
X358Y111D01*
X358Y113D01*
X356Y113D01*
X356Y115D01*
X354Y115D01*
X354Y119D01*
X352Y119D01*
X352Y121D01*
X350Y121D01*
X350Y125D01*
X348Y125D01*
X348Y129D01*
X326Y129D01*
G37*
D02*
G36*
X434Y129D02*
X434Y127D01*
X432Y127D01*
X432Y125D01*
X430Y125D01*
X430Y121D01*
X428Y121D01*
X428Y119D01*
X426Y119D01*
X426Y115D01*
X424Y115D01*
X424Y113D01*
X422Y113D01*
X422Y111D01*
X420Y111D01*
X420Y109D01*
X478Y109D01*
X478Y111D01*
X474Y111D01*
X474Y113D01*
X470Y113D01*
X470Y115D01*
X466Y115D01*
X466Y117D01*
X464Y117D01*
X464Y119D01*
X460Y119D01*
X460Y121D01*
X458Y121D01*
X458Y123D01*
X456Y123D01*
X456Y125D01*
X454Y125D01*
X454Y129D01*
X434Y129D01*
G37*
D02*
G36*
X526Y129D02*
X526Y125D01*
X524Y125D01*
X524Y123D01*
X522Y123D01*
X522Y121D01*
X520Y121D01*
X520Y119D01*
X516Y119D01*
X516Y117D01*
X514Y117D01*
X514Y115D01*
X510Y115D01*
X510Y113D01*
X506Y113D01*
X506Y111D01*
X502Y111D01*
X502Y109D01*
X560Y109D01*
X560Y111D01*
X558Y111D01*
X558Y113D01*
X556Y113D01*
X556Y115D01*
X554Y115D01*
X554Y119D01*
X552Y119D01*
X552Y121D01*
X550Y121D01*
X550Y125D01*
X548Y125D01*
X548Y129D01*
X526Y129D01*
G37*
D02*
G36*
X40Y121D02*
X40Y109D01*
X78Y109D01*
X78Y111D01*
X74Y111D01*
X74Y113D01*
X70Y113D01*
X70Y115D01*
X66Y115D01*
X66Y117D01*
X64Y117D01*
X64Y119D01*
X60Y119D01*
X60Y121D01*
X40Y121D01*
G37*
D02*
G36*
X40Y109D02*
X40Y107D01*
X164Y107D01*
X164Y109D01*
X40Y109D01*
G37*
D02*
G36*
X40Y109D02*
X40Y107D01*
X164Y107D01*
X164Y109D01*
X40Y109D01*
G37*
D02*
G36*
X216Y109D02*
X216Y107D01*
X364Y107D01*
X364Y109D01*
X216Y109D01*
G37*
D02*
G36*
X216Y109D02*
X216Y107D01*
X364Y107D01*
X364Y109D01*
X216Y109D01*
G37*
D02*
G36*
X416Y109D02*
X416Y107D01*
X564Y107D01*
X564Y109D01*
X416Y109D01*
G37*
D02*
G36*
X416Y109D02*
X416Y107D01*
X564Y107D01*
X564Y109D01*
X416Y109D01*
G37*
D02*
G36*
X40Y107D02*
X40Y99D01*
X178Y99D01*
X178Y101D01*
X174Y101D01*
X174Y103D01*
X170Y103D01*
X170Y105D01*
X166Y105D01*
X166Y107D01*
X40Y107D01*
G37*
D02*
G36*
X214Y107D02*
X214Y105D01*
X210Y105D01*
X210Y103D01*
X206Y103D01*
X206Y101D01*
X202Y101D01*
X202Y99D01*
X378Y99D01*
X378Y101D01*
X374Y101D01*
X374Y103D01*
X370Y103D01*
X370Y105D01*
X366Y105D01*
X366Y107D01*
X214Y107D01*
G37*
D02*
G36*
X414Y107D02*
X414Y105D01*
X410Y105D01*
X410Y103D01*
X406Y103D01*
X406Y101D01*
X402Y101D01*
X402Y99D01*
X578Y99D01*
X578Y101D01*
X574Y101D01*
X574Y103D01*
X570Y103D01*
X570Y105D01*
X566Y105D01*
X566Y107D01*
X414Y107D01*
G37*
D02*
G36*
X40Y99D02*
X40Y97D01*
X668Y97D01*
X668Y99D01*
X40Y99D01*
G37*
D02*
G36*
X40Y99D02*
X40Y97D01*
X668Y97D01*
X668Y99D01*
X40Y99D01*
G37*
D02*
G36*
X40Y99D02*
X40Y97D01*
X668Y97D01*
X668Y99D01*
X40Y99D01*
G37*
D02*
G36*
X40Y99D02*
X40Y97D01*
X668Y97D01*
X668Y99D01*
X40Y99D01*
G37*
D02*
G36*
X40Y97D02*
X40Y41D01*
X668Y41D01*
X668Y97D01*
X40Y97D01*
G37*
D02*
G36*
X412Y2397D02*
X447Y2397D01*
X447Y2365D01*
X412Y2365D01*
X412Y2397D01*
G37*
D02*
G36*
X412Y2335D02*
X447Y2335D01*
X447Y2303D01*
X412Y2303D01*
X412Y2335D01*
G37*
D02*
G36*
X382Y2367D02*
X414Y2367D01*
X414Y2332D01*
X382Y2332D01*
X382Y2367D01*
G37*
D02*
G36*
X444Y2367D02*
X476Y2367D01*
X476Y2332D01*
X444Y2332D01*
X444Y2367D01*
G37*
D02*
G36*
X312Y1797D02*
X347Y1797D01*
X347Y1765D01*
X312Y1765D01*
X312Y1797D01*
G37*
D02*
G36*
X488Y1391D02*
X523Y1391D01*
X523Y1359D01*
X488Y1359D01*
X488Y1391D01*
G37*
D02*
G36*
X412Y995D02*
X447Y995D01*
X447Y963D01*
X412Y963D01*
X412Y995D01*
G37*
D02*
G36*
X382Y965D02*
X414Y965D01*
X414Y930D01*
X382Y930D01*
X382Y965D01*
G37*
D02*
G36*
X444Y965D02*
X476Y965D01*
X476Y930D01*
X444Y930D01*
X444Y965D01*
G37*
D02*
G36*
X220Y1420D02*
X250Y1420D01*
X250Y1383D01*
X220Y1383D01*
X220Y1420D01*
G37*
D02*
G36*
X288Y1420D02*
X318Y1420D01*
X318Y1383D01*
X288Y1383D01*
X288Y1420D01*
G37*
D02*
G36*
X356Y1157D02*
X391Y1157D01*
X391Y1125D01*
X356Y1125D01*
X356Y1157D01*
G37*
D02*
G36*
X569Y197D02*
X606Y197D01*
X606Y167D01*
X569Y167D01*
X569Y197D01*
G37*
D02*
G36*
X569Y129D02*
X606Y129D01*
X606Y99D01*
X569Y99D01*
X569Y129D01*
G37*
D02*
G36*
X606Y166D02*
X638Y166D01*
X638Y129D01*
X606Y129D01*
X606Y166D01*
G37*
D02*
G54D14*
X228Y2383D02*
X234Y2383D01*
X427Y2383D02*
X434Y2383D01*
X223Y2382D02*
X239Y2382D01*
X423Y2382D02*
X438Y2382D01*
X220Y2381D02*
X242Y2381D01*
X420Y2381D02*
X441Y2381D01*
X218Y2380D02*
X244Y2380D01*
X417Y2380D02*
X444Y2380D01*
X216Y2379D02*
X246Y2379D01*
X415Y2379D02*
X446Y2379D01*
X214Y2378D02*
X247Y2378D01*
X414Y2378D02*
X447Y2378D01*
X212Y2377D02*
X249Y2377D01*
X412Y2377D02*
X449Y2377D01*
X211Y2376D02*
X250Y2376D01*
X411Y2376D02*
X450Y2376D01*
X210Y2375D02*
X252Y2375D01*
X410Y2375D02*
X451Y2375D01*
X209Y2374D02*
X253Y2374D01*
X408Y2374D02*
X453Y2374D01*
X208Y2373D02*
X254Y2373D01*
X407Y2373D02*
X454Y2373D01*
X207Y2372D02*
X255Y2372D01*
X406Y2372D02*
X455Y2372D01*
X206Y2371D02*
X256Y2371D01*
X405Y2371D02*
X456Y2371D01*
X205Y2370D02*
X257Y2370D01*
X405Y2370D02*
X456Y2370D01*
X204Y2369D02*
X257Y2369D01*
X404Y2369D02*
X457Y2369D01*
X203Y2368D02*
X258Y2368D01*
X403Y2368D02*
X458Y2368D01*
X202Y2367D02*
X259Y2367D01*
X402Y2367D02*
X459Y2367D01*
X202Y2366D02*
X260Y2366D01*
X402Y2366D02*
X459Y2366D01*
X201Y2365D02*
X260Y2365D01*
X401Y2365D02*
X460Y2365D01*
X201Y2364D02*
X261Y2364D01*
X400Y2364D02*
X461Y2364D01*
X200Y2363D02*
X227Y2363D01*
X234Y2363D02*
X261Y2363D01*
X400Y2363D02*
X427Y2363D01*
X434Y2363D02*
X461Y2363D01*
X200Y2362D02*
X223Y2362D01*
X238Y2362D02*
X262Y2362D01*
X399Y2362D02*
X423Y2362D01*
X438Y2362D02*
X462Y2362D01*
X199Y2361D02*
X221Y2361D01*
X240Y2361D02*
X262Y2361D01*
X399Y2361D02*
X421Y2361D01*
X440Y2361D02*
X462Y2361D01*
X199Y2360D02*
X220Y2360D01*
X242Y2360D02*
X263Y2360D01*
X398Y2360D02*
X420Y2360D01*
X441Y2360D02*
X463Y2360D01*
X198Y2359D02*
X219Y2359D01*
X243Y2359D02*
X263Y2359D01*
X398Y2359D02*
X419Y2359D01*
X442Y2359D02*
X463Y2359D01*
X198Y2358D02*
X218Y2358D01*
X243Y2358D02*
X264Y2358D01*
X398Y2358D02*
X418Y2358D01*
X443Y2358D02*
X463Y2358D01*
X198Y2357D02*
X217Y2357D01*
X244Y2357D02*
X264Y2357D01*
X397Y2357D02*
X417Y2357D01*
X444Y2357D02*
X464Y2357D01*
X197Y2356D02*
X217Y2356D01*
X245Y2356D02*
X264Y2356D01*
X397Y2356D02*
X417Y2356D01*
X444Y2356D02*
X464Y2356D01*
X197Y2355D02*
X216Y2355D01*
X245Y2355D02*
X264Y2355D01*
X397Y2355D02*
X416Y2355D01*
X445Y2355D02*
X464Y2355D01*
X197Y2354D02*
X216Y2354D01*
X245Y2354D02*
X265Y2354D01*
X397Y2354D02*
X416Y2354D01*
X445Y2354D02*
X464Y2354D01*
X197Y2353D02*
X216Y2353D01*
X246Y2353D02*
X265Y2353D01*
X396Y2353D02*
X416Y2353D01*
X445Y2353D02*
X465Y2353D01*
X196Y2352D02*
X216Y2352D01*
X246Y2352D02*
X265Y2352D01*
X396Y2352D02*
X415Y2352D01*
X446Y2352D02*
X465Y2352D01*
X196Y2351D02*
X215Y2351D01*
X246Y2351D02*
X265Y2351D01*
X396Y2351D02*
X415Y2351D01*
X446Y2351D02*
X465Y2351D01*
X196Y2350D02*
X215Y2350D01*
X246Y2350D02*
X265Y2350D01*
X396Y2350D02*
X415Y2350D01*
X446Y2350D02*
X465Y2350D01*
X196Y2349D02*
X215Y2349D01*
X246Y2349D02*
X265Y2349D01*
X396Y2349D02*
X415Y2349D01*
X446Y2349D02*
X465Y2349D01*
X196Y2348D02*
X215Y2348D01*
X246Y2348D02*
X265Y2348D01*
X396Y2348D02*
X415Y2348D01*
X446Y2348D02*
X465Y2348D01*
X196Y2347D02*
X215Y2347D01*
X246Y2347D02*
X265Y2347D01*
X396Y2347D02*
X415Y2347D01*
X446Y2347D02*
X465Y2347D01*
X196Y2346D02*
X215Y2346D01*
X246Y2346D02*
X265Y2346D01*
X396Y2346D02*
X415Y2346D01*
X446Y2346D02*
X465Y2346D01*
X196Y2345D02*
X215Y2345D01*
X246Y2345D02*
X265Y2345D01*
X396Y2345D02*
X415Y2345D01*
X446Y2345D02*
X465Y2345D01*
X197Y2344D02*
X216Y2344D01*
X246Y2344D02*
X265Y2344D01*
X396Y2344D02*
X415Y2344D01*
X446Y2344D02*
X465Y2344D01*
X197Y2343D02*
X216Y2343D01*
X246Y2343D02*
X265Y2343D01*
X397Y2343D02*
X416Y2343D01*
X445Y2343D02*
X464Y2343D01*
X197Y2342D02*
X216Y2342D01*
X245Y2342D02*
X264Y2342D01*
X397Y2342D02*
X416Y2342D01*
X445Y2342D02*
X464Y2342D01*
X197Y2341D02*
X217Y2341D01*
X245Y2341D02*
X264Y2341D01*
X397Y2341D02*
X416Y2341D01*
X445Y2341D02*
X464Y2341D01*
X197Y2340D02*
X217Y2340D01*
X244Y2340D02*
X264Y2340D01*
X397Y2340D02*
X417Y2340D01*
X444Y2340D02*
X464Y2340D01*
X198Y2339D02*
X218Y2339D01*
X244Y2339D02*
X264Y2339D01*
X398Y2339D02*
X417Y2339D01*
X444Y2339D02*
X463Y2339D01*
X198Y2338D02*
X218Y2338D01*
X243Y2338D02*
X263Y2338D01*
X398Y2338D02*
X418Y2338D01*
X443Y2338D02*
X463Y2338D01*
X198Y2337D02*
X219Y2337D01*
X242Y2337D02*
X263Y2337D01*
X398Y2337D02*
X419Y2337D01*
X442Y2337D02*
X463Y2337D01*
X199Y2336D02*
X220Y2336D01*
X241Y2336D02*
X263Y2336D01*
X399Y2336D02*
X420Y2336D01*
X441Y2336D02*
X462Y2336D01*
X199Y2335D02*
X222Y2335D01*
X239Y2335D02*
X262Y2335D01*
X399Y2335D02*
X422Y2335D01*
X439Y2335D02*
X462Y2335D01*
X200Y2334D02*
X225Y2334D01*
X237Y2334D02*
X262Y2334D01*
X400Y2334D02*
X424Y2334D01*
X437Y2334D02*
X461Y2334D01*
X200Y2333D02*
X261Y2333D01*
X400Y2333D02*
X461Y2333D01*
X201Y2332D02*
X261Y2332D01*
X401Y2332D02*
X460Y2332D01*
X201Y2331D02*
X260Y2331D01*
X401Y2331D02*
X460Y2331D01*
X202Y2330D02*
X259Y2330D01*
X402Y2330D02*
X459Y2330D01*
X203Y2329D02*
X259Y2329D01*
X403Y2329D02*
X458Y2329D01*
X203Y2328D02*
X258Y2328D01*
X403Y2328D02*
X458Y2328D01*
X204Y2327D02*
X257Y2327D01*
X404Y2327D02*
X457Y2327D01*
X205Y2326D02*
X256Y2326D01*
X405Y2326D02*
X456Y2326D01*
X206Y2325D02*
X255Y2325D01*
X406Y2325D02*
X455Y2325D01*
X207Y2324D02*
X254Y2324D01*
X407Y2324D02*
X454Y2324D01*
X208Y2323D02*
X253Y2323D01*
X408Y2323D02*
X453Y2323D01*
X209Y2322D02*
X252Y2322D01*
X409Y2322D02*
X452Y2322D01*
X210Y2321D02*
X251Y2321D01*
X410Y2321D02*
X451Y2321D01*
X212Y2320D02*
X250Y2320D01*
X411Y2320D02*
X450Y2320D01*
X213Y2319D02*
X248Y2319D01*
X413Y2319D02*
X448Y2319D01*
X215Y2318D02*
X247Y2318D01*
X415Y2318D02*
X446Y2318D01*
X216Y2317D02*
X245Y2317D01*
X416Y2317D02*
X445Y2317D01*
X219Y2316D02*
X243Y2316D01*
X418Y2316D02*
X443Y2316D01*
X221Y2315D02*
X240Y2315D01*
X421Y2315D02*
X440Y2315D01*
X225Y2314D02*
X237Y2314D01*
X424Y2314D02*
X437Y2314D01*
X226Y1783D02*
X235Y1783D01*
X326Y1783D02*
X335Y1783D01*
X426Y1783D02*
X435Y1783D01*
X222Y1782D02*
X239Y1782D01*
X322Y1782D02*
X339Y1782D01*
X422Y1782D02*
X439Y1782D01*
X219Y1781D02*
X242Y1781D01*
X319Y1781D02*
X342Y1781D01*
X419Y1781D02*
X442Y1781D01*
X217Y1780D02*
X244Y1780D01*
X317Y1780D02*
X344Y1780D01*
X417Y1780D02*
X444Y1780D01*
X215Y1779D02*
X246Y1779D01*
X315Y1779D02*
X346Y1779D01*
X415Y1779D02*
X446Y1779D01*
X214Y1778D02*
X248Y1778D01*
X314Y1778D02*
X348Y1778D01*
X413Y1778D02*
X448Y1778D01*
X212Y1777D02*
X249Y1777D01*
X312Y1777D02*
X349Y1777D01*
X412Y1777D02*
X449Y1777D01*
X211Y1776D02*
X251Y1776D01*
X311Y1776D02*
X351Y1776D01*
X411Y1776D02*
X450Y1776D01*
X210Y1775D02*
X252Y1775D01*
X309Y1775D02*
X352Y1775D01*
X409Y1775D02*
X452Y1775D01*
X208Y1774D02*
X253Y1774D01*
X308Y1774D02*
X353Y1774D01*
X408Y1774D02*
X453Y1774D01*
X207Y1773D02*
X254Y1773D01*
X307Y1773D02*
X354Y1773D01*
X407Y1773D02*
X454Y1773D01*
X206Y1772D02*
X255Y1772D01*
X306Y1772D02*
X355Y1772D01*
X406Y1772D02*
X455Y1772D01*
X205Y1771D02*
X256Y1771D01*
X305Y1771D02*
X356Y1771D01*
X405Y1771D02*
X456Y1771D01*
X205Y1770D02*
X257Y1770D01*
X304Y1770D02*
X357Y1770D01*
X404Y1770D02*
X457Y1770D01*
X204Y1769D02*
X258Y1769D01*
X304Y1769D02*
X358Y1769D01*
X404Y1769D02*
X457Y1769D01*
X203Y1768D02*
X258Y1768D01*
X303Y1768D02*
X358Y1768D01*
X403Y1768D02*
X458Y1768D01*
X202Y1767D02*
X259Y1767D01*
X302Y1767D02*
X359Y1767D01*
X402Y1767D02*
X459Y1767D01*
X202Y1766D02*
X260Y1766D01*
X302Y1766D02*
X360Y1766D01*
X401Y1766D02*
X460Y1766D01*
X201Y1765D02*
X260Y1765D01*
X301Y1765D02*
X360Y1765D01*
X401Y1765D02*
X460Y1765D01*
X200Y1764D02*
X261Y1764D01*
X300Y1764D02*
X361Y1764D01*
X400Y1764D02*
X461Y1764D01*
X200Y1763D02*
X226Y1763D01*
X236Y1763D02*
X261Y1763D01*
X300Y1763D02*
X326Y1763D01*
X335Y1763D02*
X361Y1763D01*
X400Y1763D02*
X426Y1763D01*
X435Y1763D02*
X461Y1763D01*
X199Y1762D02*
X223Y1762D01*
X239Y1762D02*
X262Y1762D01*
X299Y1762D02*
X323Y1762D01*
X339Y1762D02*
X362Y1762D01*
X399Y1762D02*
X422Y1762D01*
X439Y1762D02*
X462Y1762D01*
X199Y1761D02*
X221Y1761D01*
X241Y1761D02*
X262Y1761D01*
X299Y1761D02*
X321Y1761D01*
X340Y1761D02*
X362Y1761D01*
X399Y1761D02*
X421Y1761D01*
X440Y1761D02*
X462Y1761D01*
X199Y1760D02*
X220Y1760D01*
X242Y1760D02*
X263Y1760D01*
X298Y1760D02*
X319Y1760D01*
X342Y1760D02*
X363Y1760D01*
X398Y1760D02*
X419Y1760D01*
X442Y1760D02*
X463Y1760D01*
X198Y1759D02*
X219Y1759D01*
X243Y1759D02*
X263Y1759D01*
X298Y1759D02*
X318Y1759D01*
X343Y1759D02*
X363Y1759D01*
X398Y1759D02*
X418Y1759D01*
X443Y1759D02*
X463Y1759D01*
X198Y1758D02*
X218Y1758D01*
X244Y1758D02*
X264Y1758D01*
X298Y1758D02*
X318Y1758D01*
X343Y1758D02*
X363Y1758D01*
X398Y1758D02*
X418Y1758D01*
X443Y1758D02*
X463Y1758D01*
X197Y1757D02*
X217Y1757D01*
X244Y1757D02*
X264Y1757D01*
X297Y1757D02*
X317Y1757D01*
X344Y1757D02*
X364Y1757D01*
X397Y1757D02*
X417Y1757D01*
X444Y1757D02*
X464Y1757D01*
X197Y1756D02*
X217Y1756D01*
X245Y1756D02*
X264Y1756D01*
X297Y1756D02*
X317Y1756D01*
X345Y1756D02*
X364Y1756D01*
X397Y1756D02*
X416Y1756D01*
X445Y1756D02*
X464Y1756D01*
X197Y1755D02*
X216Y1755D01*
X245Y1755D02*
X264Y1755D01*
X297Y1755D02*
X316Y1755D01*
X345Y1755D02*
X364Y1755D01*
X397Y1755D02*
X416Y1755D01*
X445Y1755D02*
X464Y1755D01*
X197Y1754D02*
X216Y1754D01*
X245Y1754D02*
X265Y1754D01*
X297Y1754D02*
X316Y1754D01*
X345Y1754D02*
X365Y1754D01*
X397Y1754D02*
X416Y1754D01*
X445Y1754D02*
X464Y1754D01*
X197Y1753D02*
X216Y1753D01*
X246Y1753D02*
X265Y1753D01*
X296Y1753D02*
X316Y1753D01*
X346Y1753D02*
X365Y1753D01*
X396Y1753D02*
X415Y1753D01*
X446Y1753D02*
X465Y1753D01*
X196Y1752D02*
X215Y1752D01*
X246Y1752D02*
X265Y1752D01*
X296Y1752D02*
X315Y1752D01*
X346Y1752D02*
X365Y1752D01*
X396Y1752D02*
X415Y1752D01*
X446Y1752D02*
X465Y1752D01*
X196Y1751D02*
X215Y1751D01*
X246Y1751D02*
X265Y1751D01*
X296Y1751D02*
X315Y1751D01*
X346Y1751D02*
X365Y1751D01*
X396Y1751D02*
X415Y1751D01*
X446Y1751D02*
X465Y1751D01*
X196Y1750D02*
X215Y1750D01*
X246Y1750D02*
X265Y1750D01*
X296Y1750D02*
X315Y1750D01*
X346Y1750D02*
X365Y1750D01*
X396Y1750D02*
X415Y1750D01*
X446Y1750D02*
X465Y1750D01*
X196Y1749D02*
X215Y1749D01*
X246Y1749D02*
X265Y1749D01*
X296Y1749D02*
X315Y1749D01*
X346Y1749D02*
X365Y1749D01*
X396Y1749D02*
X415Y1749D01*
X446Y1749D02*
X465Y1749D01*
X196Y1748D02*
X215Y1748D01*
X246Y1748D02*
X265Y1748D01*
X296Y1748D02*
X315Y1748D01*
X346Y1748D02*
X365Y1748D01*
X396Y1748D02*
X415Y1748D01*
X446Y1748D02*
X465Y1748D01*
X196Y1747D02*
X215Y1747D01*
X246Y1747D02*
X265Y1747D01*
X296Y1747D02*
X315Y1747D01*
X346Y1747D02*
X365Y1747D01*
X396Y1747D02*
X415Y1747D01*
X446Y1747D02*
X465Y1747D01*
X196Y1746D02*
X215Y1746D01*
X246Y1746D02*
X265Y1746D01*
X296Y1746D02*
X315Y1746D01*
X346Y1746D02*
X365Y1746D01*
X396Y1746D02*
X415Y1746D01*
X446Y1746D02*
X465Y1746D01*
X196Y1745D02*
X215Y1745D01*
X246Y1745D02*
X265Y1745D01*
X296Y1745D02*
X315Y1745D01*
X346Y1745D02*
X365Y1745D01*
X396Y1745D02*
X415Y1745D01*
X446Y1745D02*
X465Y1745D01*
X197Y1744D02*
X216Y1744D01*
X246Y1744D02*
X265Y1744D01*
X296Y1744D02*
X316Y1744D01*
X346Y1744D02*
X365Y1744D01*
X396Y1744D02*
X415Y1744D01*
X446Y1744D02*
X465Y1744D01*
X197Y1743D02*
X216Y1743D01*
X245Y1743D02*
X265Y1743D01*
X297Y1743D02*
X316Y1743D01*
X345Y1743D02*
X365Y1743D01*
X397Y1743D02*
X416Y1743D01*
X445Y1743D02*
X464Y1743D01*
X197Y1742D02*
X216Y1742D01*
X245Y1742D02*
X264Y1742D01*
X297Y1742D02*
X316Y1742D01*
X345Y1742D02*
X364Y1742D01*
X397Y1742D02*
X416Y1742D01*
X445Y1742D02*
X464Y1742D01*
X197Y1741D02*
X217Y1741D01*
X245Y1741D02*
X264Y1741D01*
X297Y1741D02*
X316Y1741D01*
X345Y1741D02*
X364Y1741D01*
X397Y1741D02*
X416Y1741D01*
X445Y1741D02*
X464Y1741D01*
X197Y1740D02*
X217Y1740D01*
X244Y1740D02*
X264Y1740D01*
X297Y1740D02*
X317Y1740D01*
X344Y1740D02*
X364Y1740D01*
X397Y1740D02*
X417Y1740D01*
X444Y1740D02*
X464Y1740D01*
X198Y1739D02*
X218Y1739D01*
X244Y1739D02*
X264Y1739D01*
X298Y1739D02*
X318Y1739D01*
X344Y1739D02*
X364Y1739D01*
X398Y1739D02*
X418Y1739D01*
X443Y1739D02*
X463Y1739D01*
X198Y1738D02*
X218Y1738D01*
X243Y1738D02*
X263Y1738D01*
X298Y1738D02*
X318Y1738D01*
X343Y1738D02*
X363Y1738D01*
X398Y1738D02*
X418Y1738D01*
X443Y1738D02*
X463Y1738D01*
X198Y1737D02*
X219Y1737D01*
X242Y1737D02*
X263Y1737D01*
X298Y1737D02*
X319Y1737D01*
X342Y1737D02*
X363Y1737D01*
X398Y1737D02*
X419Y1737D01*
X442Y1737D02*
X463Y1737D01*
X199Y1736D02*
X221Y1736D01*
X241Y1736D02*
X262Y1736D01*
X299Y1736D02*
X321Y1736D01*
X341Y1736D02*
X362Y1736D01*
X399Y1736D02*
X420Y1736D01*
X441Y1736D02*
X462Y1736D01*
X199Y1735D02*
X222Y1735D01*
X239Y1735D02*
X262Y1735D01*
X299Y1735D02*
X322Y1735D01*
X339Y1735D02*
X362Y1735D01*
X399Y1735D02*
X422Y1735D01*
X439Y1735D02*
X462Y1735D01*
X200Y1734D02*
X225Y1734D01*
X236Y1734D02*
X262Y1734D01*
X300Y1734D02*
X325Y1734D01*
X336Y1734D02*
X361Y1734D01*
X400Y1734D02*
X425Y1734D01*
X436Y1734D02*
X461Y1734D01*
X200Y1733D02*
X261Y1733D01*
X300Y1733D02*
X361Y1733D01*
X400Y1733D02*
X461Y1733D01*
X201Y1732D02*
X260Y1732D01*
X301Y1732D02*
X360Y1732D01*
X401Y1732D02*
X460Y1732D01*
X202Y1731D02*
X260Y1731D01*
X301Y1731D02*
X360Y1731D01*
X401Y1731D02*
X460Y1731D01*
X202Y1730D02*
X259Y1730D01*
X302Y1730D02*
X359Y1730D01*
X402Y1730D02*
X459Y1730D01*
X203Y1729D02*
X258Y1729D01*
X303Y1729D02*
X358Y1729D01*
X403Y1729D02*
X458Y1729D01*
X204Y1728D02*
X258Y1728D01*
X304Y1728D02*
X358Y1728D01*
X403Y1728D02*
X458Y1728D01*
X204Y1727D02*
X257Y1727D01*
X304Y1727D02*
X357Y1727D01*
X404Y1727D02*
X457Y1727D01*
X205Y1726D02*
X256Y1726D01*
X305Y1726D02*
X356Y1726D01*
X405Y1726D02*
X456Y1726D01*
X206Y1725D02*
X255Y1725D01*
X306Y1725D02*
X355Y1725D01*
X406Y1725D02*
X455Y1725D01*
X207Y1724D02*
X254Y1724D01*
X307Y1724D02*
X354Y1724D01*
X407Y1724D02*
X454Y1724D01*
X208Y1723D02*
X253Y1723D01*
X308Y1723D02*
X353Y1723D01*
X408Y1723D02*
X453Y1723D01*
X209Y1722D02*
X252Y1722D01*
X309Y1722D02*
X352Y1722D01*
X409Y1722D02*
X452Y1722D01*
X211Y1721D02*
X251Y1721D01*
X311Y1721D02*
X351Y1721D01*
X410Y1721D02*
X451Y1721D01*
X212Y1720D02*
X249Y1720D01*
X312Y1720D02*
X349Y1720D01*
X412Y1720D02*
X449Y1720D01*
X213Y1719D02*
X248Y1719D01*
X313Y1719D02*
X348Y1719D01*
X413Y1719D02*
X448Y1719D01*
X215Y1718D02*
X246Y1718D01*
X315Y1718D02*
X346Y1718D01*
X415Y1718D02*
X446Y1718D01*
X217Y1717D02*
X244Y1717D01*
X317Y1717D02*
X344Y1717D01*
X417Y1717D02*
X444Y1717D01*
X219Y1716D02*
X242Y1716D01*
X319Y1716D02*
X342Y1716D01*
X419Y1716D02*
X442Y1716D01*
X222Y1715D02*
X240Y1715D01*
X322Y1715D02*
X340Y1715D01*
X422Y1715D02*
X439Y1715D01*
X226Y1714D02*
X236Y1714D01*
X325Y1714D02*
X336Y1714D01*
X425Y1714D02*
X436Y1714D01*
X235Y1438D02*
X307Y1438D01*
X235Y1437D02*
X307Y1437D01*
X235Y1436D02*
X307Y1436D01*
X235Y1435D02*
X307Y1435D01*
X235Y1434D02*
X307Y1434D01*
X235Y1433D02*
X307Y1433D01*
X235Y1432D02*
X307Y1432D01*
X235Y1431D02*
X307Y1431D01*
X235Y1430D02*
X307Y1430D01*
X235Y1429D02*
X307Y1429D01*
X235Y1428D02*
X307Y1428D01*
X235Y1427D02*
X307Y1427D01*
X235Y1426D02*
X307Y1426D01*
X235Y1425D02*
X307Y1425D01*
X235Y1424D02*
X307Y1424D01*
X235Y1423D02*
X307Y1423D01*
X235Y1422D02*
X307Y1422D01*
X235Y1421D02*
X267Y1421D01*
X275Y1421D02*
X307Y1421D01*
X235Y1420D02*
X263Y1420D01*
X278Y1420D02*
X307Y1420D01*
X235Y1419D02*
X261Y1419D01*
X281Y1419D02*
X307Y1419D01*
X235Y1418D02*
X260Y1418D01*
X282Y1418D02*
X307Y1418D01*
X235Y1417D02*
X258Y1417D01*
X284Y1417D02*
X307Y1417D01*
X235Y1416D02*
X257Y1416D01*
X285Y1416D02*
X307Y1416D01*
X235Y1415D02*
X256Y1415D01*
X286Y1415D02*
X307Y1415D01*
X235Y1414D02*
X255Y1414D01*
X287Y1414D02*
X307Y1414D01*
X235Y1413D02*
X254Y1413D01*
X288Y1413D02*
X307Y1413D01*
X235Y1412D02*
X254Y1412D01*
X288Y1412D02*
X307Y1412D01*
X235Y1411D02*
X253Y1411D01*
X289Y1411D02*
X307Y1411D01*
X235Y1410D02*
X252Y1410D01*
X289Y1410D02*
X307Y1410D01*
X235Y1409D02*
X252Y1409D01*
X290Y1409D02*
X307Y1409D01*
X235Y1408D02*
X252Y1408D01*
X290Y1408D02*
X307Y1408D01*
X235Y1407D02*
X251Y1407D01*
X291Y1407D02*
X307Y1407D01*
X235Y1406D02*
X251Y1406D01*
X291Y1406D02*
X307Y1406D01*
X235Y1405D02*
X251Y1405D01*
X291Y1405D02*
X307Y1405D01*
X235Y1404D02*
X251Y1404D01*
X291Y1404D02*
X307Y1404D01*
X235Y1403D02*
X251Y1403D01*
X291Y1403D02*
X307Y1403D01*
X235Y1402D02*
X251Y1402D01*
X291Y1402D02*
X307Y1402D01*
X235Y1401D02*
X251Y1401D01*
X291Y1401D02*
X307Y1401D01*
X235Y1400D02*
X251Y1400D01*
X291Y1400D02*
X307Y1400D01*
X235Y1399D02*
X251Y1399D01*
X291Y1399D02*
X307Y1399D01*
X235Y1398D02*
X251Y1398D01*
X291Y1398D02*
X307Y1398D01*
X235Y1397D02*
X251Y1397D01*
X291Y1397D02*
X307Y1397D01*
X235Y1396D02*
X251Y1396D01*
X291Y1396D02*
X307Y1396D01*
X235Y1395D02*
X251Y1395D01*
X290Y1395D02*
X307Y1395D01*
X235Y1394D02*
X252Y1394D01*
X290Y1394D02*
X307Y1394D01*
X235Y1393D02*
X252Y1393D01*
X290Y1393D02*
X307Y1393D01*
X235Y1392D02*
X253Y1392D01*
X289Y1392D02*
X307Y1392D01*
X235Y1391D02*
X253Y1391D01*
X289Y1391D02*
X307Y1391D01*
X235Y1390D02*
X254Y1390D01*
X288Y1390D02*
X307Y1390D01*
X235Y1389D02*
X255Y1389D01*
X287Y1389D02*
X307Y1389D01*
X235Y1388D02*
X256Y1388D01*
X286Y1388D02*
X307Y1388D01*
X235Y1387D02*
X256Y1387D01*
X285Y1387D02*
X307Y1387D01*
X235Y1386D02*
X258Y1386D01*
X284Y1386D02*
X307Y1386D01*
X235Y1385D02*
X259Y1385D01*
X283Y1385D02*
X307Y1385D01*
X235Y1384D02*
X260Y1384D01*
X282Y1384D02*
X307Y1384D01*
X235Y1383D02*
X262Y1383D01*
X280Y1383D02*
X307Y1383D01*
X235Y1382D02*
X265Y1382D01*
X277Y1382D02*
X307Y1382D01*
X235Y1381D02*
X307Y1381D01*
X235Y1380D02*
X307Y1380D01*
X235Y1379D02*
X307Y1379D01*
X235Y1378D02*
X307Y1378D01*
X235Y1377D02*
X307Y1377D01*
X235Y1376D02*
X307Y1376D01*
X235Y1375D02*
X307Y1375D01*
X235Y1374D02*
X307Y1374D01*
X235Y1373D02*
X307Y1373D01*
X235Y1372D02*
X307Y1372D01*
X235Y1371D02*
X307Y1371D01*
X235Y1370D02*
X307Y1370D01*
X235Y1369D02*
X307Y1369D01*
X235Y1368D02*
X307Y1368D01*
X235Y1367D02*
X307Y1367D01*
X235Y1366D02*
X307Y1366D01*
X235Y1365D02*
X307Y1365D01*
X224Y980D02*
X238Y980D01*
X424Y980D02*
X437Y980D01*
X221Y979D02*
X241Y979D01*
X420Y979D02*
X441Y979D01*
X218Y978D02*
X243Y978D01*
X418Y978D02*
X443Y978D01*
X216Y977D02*
X245Y977D01*
X416Y977D02*
X445Y977D01*
X214Y976D02*
X247Y976D01*
X414Y976D02*
X447Y976D01*
X213Y975D02*
X249Y975D01*
X413Y975D02*
X448Y975D01*
X211Y974D02*
X250Y974D01*
X411Y974D02*
X450Y974D01*
X210Y973D02*
X251Y973D01*
X410Y973D02*
X451Y973D01*
X209Y972D02*
X252Y972D01*
X409Y972D02*
X452Y972D01*
X208Y971D02*
X254Y971D01*
X408Y971D02*
X453Y971D01*
X207Y970D02*
X255Y970D01*
X407Y970D02*
X454Y970D01*
X206Y969D02*
X256Y969D01*
X406Y969D02*
X455Y969D01*
X205Y968D02*
X256Y968D01*
X405Y968D02*
X456Y968D01*
X204Y967D02*
X257Y967D01*
X404Y967D02*
X457Y967D01*
X203Y966D02*
X258Y966D01*
X403Y966D02*
X458Y966D01*
X203Y965D02*
X259Y965D01*
X402Y965D02*
X459Y965D01*
X202Y964D02*
X259Y964D01*
X402Y964D02*
X459Y964D01*
X201Y963D02*
X260Y963D01*
X401Y963D02*
X460Y963D01*
X201Y962D02*
X261Y962D01*
X400Y962D02*
X460Y962D01*
X200Y961D02*
X261Y961D01*
X400Y961D02*
X461Y961D01*
X200Y960D02*
X224Y960D01*
X238Y960D02*
X262Y960D01*
X399Y960D02*
X424Y960D01*
X437Y960D02*
X462Y960D01*
X199Y959D02*
X222Y959D01*
X240Y959D02*
X262Y959D01*
X399Y959D02*
X421Y959D01*
X440Y959D02*
X462Y959D01*
X199Y958D02*
X220Y958D01*
X241Y958D02*
X263Y958D01*
X399Y958D02*
X420Y958D01*
X441Y958D02*
X462Y958D01*
X198Y957D02*
X219Y957D01*
X242Y957D02*
X263Y957D01*
X398Y957D02*
X419Y957D01*
X442Y957D02*
X463Y957D01*
X198Y956D02*
X218Y956D01*
X243Y956D02*
X263Y956D01*
X398Y956D02*
X418Y956D01*
X443Y956D02*
X463Y956D01*
X198Y955D02*
X217Y955D01*
X244Y955D02*
X264Y955D01*
X397Y955D02*
X417Y955D01*
X444Y955D02*
X464Y955D01*
X197Y954D02*
X217Y954D01*
X244Y954D02*
X264Y954D01*
X397Y954D02*
X417Y954D01*
X444Y954D02*
X464Y954D01*
X197Y953D02*
X216Y953D01*
X245Y953D02*
X264Y953D01*
X397Y953D02*
X416Y953D01*
X445Y953D02*
X464Y953D01*
X197Y952D02*
X216Y952D01*
X245Y952D02*
X265Y952D01*
X397Y952D02*
X416Y952D01*
X445Y952D02*
X464Y952D01*
X197Y951D02*
X216Y951D01*
X246Y951D02*
X265Y951D01*
X396Y951D02*
X416Y951D01*
X445Y951D02*
X465Y951D01*
X196Y950D02*
X216Y950D01*
X246Y950D02*
X265Y950D01*
X396Y950D02*
X415Y950D01*
X446Y950D02*
X465Y950D01*
X196Y949D02*
X215Y949D01*
X246Y949D02*
X265Y949D01*
X396Y949D02*
X415Y949D01*
X446Y949D02*
X465Y949D01*
X196Y948D02*
X215Y948D01*
X246Y948D02*
X265Y948D01*
X396Y948D02*
X415Y948D01*
X446Y948D02*
X465Y948D01*
X196Y947D02*
X215Y947D01*
X246Y947D02*
X265Y947D01*
X396Y947D02*
X415Y947D01*
X446Y947D02*
X465Y947D01*
X196Y946D02*
X215Y946D01*
X246Y946D02*
X265Y946D01*
X396Y946D02*
X415Y946D01*
X446Y946D02*
X465Y946D01*
X196Y945D02*
X215Y945D01*
X246Y945D02*
X265Y945D01*
X396Y945D02*
X415Y945D01*
X446Y945D02*
X465Y945D01*
X196Y944D02*
X215Y944D01*
X246Y944D02*
X265Y944D01*
X396Y944D02*
X415Y944D01*
X446Y944D02*
X465Y944D01*
X196Y943D02*
X215Y943D01*
X246Y943D02*
X265Y943D01*
X396Y943D02*
X415Y943D01*
X446Y943D02*
X465Y943D01*
X196Y942D02*
X216Y942D01*
X246Y942D02*
X265Y942D01*
X396Y942D02*
X415Y942D01*
X446Y942D02*
X465Y942D01*
X197Y941D02*
X216Y941D01*
X246Y941D02*
X265Y941D01*
X396Y941D02*
X416Y941D01*
X445Y941D02*
X465Y941D01*
X197Y940D02*
X216Y940D01*
X245Y940D02*
X265Y940D01*
X397Y940D02*
X416Y940D01*
X445Y940D02*
X464Y940D01*
X197Y939D02*
X216Y939D01*
X245Y939D02*
X264Y939D01*
X397Y939D02*
X416Y939D01*
X445Y939D02*
X464Y939D01*
X197Y938D02*
X217Y938D01*
X245Y938D02*
X264Y938D01*
X397Y938D02*
X417Y938D01*
X444Y938D02*
X464Y938D01*
X198Y937D02*
X217Y937D01*
X244Y937D02*
X264Y937D01*
X397Y937D02*
X417Y937D01*
X444Y937D02*
X464Y937D01*
X198Y936D02*
X218Y936D01*
X243Y936D02*
X263Y936D01*
X398Y936D02*
X418Y936D01*
X443Y936D02*
X463Y936D01*
X198Y935D02*
X219Y935D01*
X242Y935D02*
X263Y935D01*
X398Y935D02*
X419Y935D01*
X442Y935D02*
X463Y935D01*
X199Y934D02*
X220Y934D01*
X241Y934D02*
X263Y934D01*
X399Y934D02*
X420Y934D01*
X441Y934D02*
X462Y934D01*
X199Y933D02*
X222Y933D01*
X240Y933D02*
X262Y933D01*
X399Y933D02*
X421Y933D01*
X440Y933D02*
X462Y933D01*
X200Y932D02*
X224Y932D01*
X238Y932D02*
X262Y932D01*
X399Y932D02*
X423Y932D01*
X437Y932D02*
X462Y932D01*
X200Y931D02*
X229Y931D01*
X232Y931D02*
X261Y931D01*
X400Y931D02*
X429Y931D01*
X432Y931D02*
X461Y931D01*
X201Y930D02*
X261Y930D01*
X400Y930D02*
X461Y930D01*
X201Y929D02*
X260Y929D01*
X401Y929D02*
X460Y929D01*
X202Y928D02*
X259Y928D01*
X402Y928D02*
X459Y928D01*
X203Y927D02*
X259Y927D01*
X402Y927D02*
X459Y927D01*
X203Y926D02*
X258Y926D01*
X403Y926D02*
X458Y926D01*
X204Y925D02*
X257Y925D01*
X404Y925D02*
X457Y925D01*
X205Y924D02*
X256Y924D01*
X405Y924D02*
X456Y924D01*
X206Y923D02*
X256Y923D01*
X406Y923D02*
X455Y923D01*
X207Y922D02*
X255Y922D01*
X407Y922D02*
X454Y922D01*
X208Y921D02*
X254Y921D01*
X408Y921D02*
X453Y921D01*
X209Y920D02*
X253Y920D01*
X409Y920D02*
X452Y920D01*
X210Y919D02*
X251Y919D01*
X410Y919D02*
X451Y919D01*
X211Y918D02*
X250Y918D01*
X411Y918D02*
X450Y918D01*
X213Y917D02*
X249Y917D01*
X413Y917D02*
X448Y917D01*
X214Y916D02*
X247Y916D01*
X414Y916D02*
X447Y916D01*
X216Y915D02*
X245Y915D01*
X416Y915D02*
X445Y915D01*
X218Y914D02*
X243Y914D01*
X418Y914D02*
X443Y914D01*
X220Y913D02*
X241Y913D01*
X420Y913D02*
X441Y913D01*
X223Y912D02*
X238Y912D01*
X423Y912D02*
X438Y912D01*
X230Y911D02*
X231Y911D01*
X430Y911D02*
X431Y911D01*
X228Y381D02*
X233Y381D01*
X328Y381D02*
X333Y381D01*
X428Y381D02*
X433Y381D01*
X223Y380D02*
X238Y380D01*
X323Y380D02*
X338Y380D01*
X423Y380D02*
X438Y380D01*
X220Y379D02*
X241Y379D01*
X320Y379D02*
X341Y379D01*
X420Y379D02*
X441Y379D01*
X218Y378D02*
X244Y378D01*
X318Y378D02*
X344Y378D01*
X417Y378D02*
X443Y378D01*
X216Y377D02*
X246Y377D01*
X316Y377D02*
X346Y377D01*
X416Y377D02*
X445Y377D01*
X214Y376D02*
X247Y376D01*
X314Y376D02*
X347Y376D01*
X414Y376D02*
X447Y376D01*
X212Y375D02*
X249Y375D01*
X312Y375D02*
X349Y375D01*
X412Y375D02*
X449Y375D01*
X211Y374D02*
X250Y374D01*
X311Y374D02*
X350Y374D01*
X411Y374D02*
X450Y374D01*
X210Y373D02*
X252Y373D01*
X310Y373D02*
X351Y373D01*
X410Y373D02*
X451Y373D01*
X209Y372D02*
X253Y372D01*
X309Y372D02*
X353Y372D01*
X408Y372D02*
X453Y372D01*
X208Y371D02*
X254Y371D01*
X307Y371D02*
X354Y371D01*
X407Y371D02*
X454Y371D01*
X207Y370D02*
X255Y370D01*
X306Y370D02*
X355Y370D01*
X406Y370D02*
X455Y370D01*
X206Y369D02*
X256Y369D01*
X306Y369D02*
X356Y369D01*
X405Y369D02*
X456Y369D01*
X205Y368D02*
X257Y368D01*
X305Y368D02*
X357Y368D01*
X405Y368D02*
X456Y368D01*
X204Y367D02*
X257Y367D01*
X304Y367D02*
X357Y367D01*
X404Y367D02*
X457Y367D01*
X203Y366D02*
X258Y366D01*
X303Y366D02*
X358Y366D01*
X403Y366D02*
X458Y366D01*
X202Y365D02*
X259Y365D01*
X302Y365D02*
X359Y365D01*
X402Y365D02*
X459Y365D01*
X202Y364D02*
X260Y364D01*
X302Y364D02*
X359Y364D01*
X402Y364D02*
X459Y364D01*
X201Y363D02*
X260Y363D01*
X301Y363D02*
X360Y363D01*
X401Y363D02*
X460Y363D01*
X201Y362D02*
X261Y362D01*
X300Y362D02*
X361Y362D01*
X400Y362D02*
X461Y362D01*
X200Y361D02*
X227Y361D01*
X234Y361D02*
X261Y361D01*
X300Y361D02*
X327Y361D01*
X334Y361D02*
X361Y361D01*
X400Y361D02*
X427Y361D01*
X434Y361D02*
X461Y361D01*
X200Y360D02*
X223Y360D01*
X238Y360D02*
X262Y360D01*
X299Y360D02*
X323Y360D01*
X338Y360D02*
X362Y360D01*
X399Y360D02*
X423Y360D01*
X438Y360D02*
X462Y360D01*
X199Y359D02*
X221Y359D01*
X240Y359D02*
X262Y359D01*
X299Y359D02*
X321Y359D01*
X340Y359D02*
X362Y359D01*
X399Y359D02*
X421Y359D01*
X440Y359D02*
X462Y359D01*
X199Y358D02*
X220Y358D01*
X242Y358D02*
X263Y358D01*
X299Y358D02*
X320Y358D01*
X341Y358D02*
X363Y358D01*
X398Y358D02*
X420Y358D01*
X441Y358D02*
X463Y358D01*
X198Y357D02*
X219Y357D01*
X243Y357D02*
X263Y357D01*
X298Y357D02*
X319Y357D01*
X342Y357D02*
X363Y357D01*
X398Y357D02*
X419Y357D01*
X442Y357D02*
X463Y357D01*
X198Y356D02*
X218Y356D01*
X243Y356D02*
X263Y356D01*
X298Y356D02*
X318Y356D01*
X343Y356D02*
X363Y356D01*
X398Y356D02*
X418Y356D01*
X443Y356D02*
X463Y356D01*
X198Y355D02*
X217Y355D01*
X244Y355D02*
X264Y355D01*
X297Y355D02*
X317Y355D01*
X344Y355D02*
X364Y355D01*
X397Y355D02*
X417Y355D01*
X444Y355D02*
X464Y355D01*
X197Y354D02*
X217Y354D01*
X245Y354D02*
X264Y354D01*
X297Y354D02*
X317Y354D01*
X344Y354D02*
X364Y354D01*
X397Y354D02*
X417Y354D01*
X444Y354D02*
X464Y354D01*
X197Y353D02*
X216Y353D01*
X245Y353D02*
X264Y353D01*
X297Y353D02*
X316Y353D01*
X345Y353D02*
X364Y353D01*
X397Y353D02*
X416Y353D01*
X445Y353D02*
X464Y353D01*
X197Y352D02*
X216Y352D01*
X245Y352D02*
X265Y352D01*
X297Y352D02*
X316Y352D01*
X345Y352D02*
X364Y352D01*
X397Y352D02*
X416Y352D01*
X445Y352D02*
X464Y352D01*
X197Y351D02*
X216Y351D01*
X246Y351D02*
X265Y351D01*
X297Y351D02*
X316Y351D01*
X346Y351D02*
X365Y351D01*
X396Y351D02*
X416Y351D01*
X445Y351D02*
X465Y351D01*
X196Y350D02*
X216Y350D01*
X246Y350D02*
X265Y350D01*
X296Y350D02*
X315Y350D01*
X346Y350D02*
X365Y350D01*
X396Y350D02*
X415Y350D01*
X446Y350D02*
X465Y350D01*
X196Y349D02*
X215Y349D01*
X246Y349D02*
X265Y349D01*
X296Y349D02*
X315Y349D01*
X346Y349D02*
X365Y349D01*
X396Y349D02*
X415Y349D01*
X446Y349D02*
X465Y349D01*
X196Y348D02*
X215Y348D01*
X246Y348D02*
X265Y348D01*
X296Y348D02*
X315Y348D01*
X346Y348D02*
X365Y348D01*
X396Y348D02*
X415Y348D01*
X446Y348D02*
X465Y348D01*
X196Y347D02*
X215Y347D01*
X246Y347D02*
X265Y347D01*
X296Y347D02*
X315Y347D01*
X346Y347D02*
X365Y347D01*
X396Y347D02*
X415Y347D01*
X446Y347D02*
X465Y347D01*
X196Y346D02*
X215Y346D01*
X246Y346D02*
X265Y346D01*
X296Y346D02*
X315Y346D01*
X346Y346D02*
X365Y346D01*
X396Y346D02*
X415Y346D01*
X446Y346D02*
X465Y346D01*
X196Y345D02*
X215Y345D01*
X246Y345D02*
X265Y345D01*
X296Y345D02*
X315Y345D01*
X346Y345D02*
X365Y345D01*
X396Y345D02*
X415Y345D01*
X446Y345D02*
X465Y345D01*
X196Y344D02*
X215Y344D01*
X246Y344D02*
X265Y344D01*
X296Y344D02*
X315Y344D01*
X346Y344D02*
X365Y344D01*
X396Y344D02*
X415Y344D01*
X446Y344D02*
X465Y344D01*
X196Y343D02*
X215Y343D01*
X246Y343D02*
X265Y343D01*
X296Y343D02*
X315Y343D01*
X346Y343D02*
X365Y343D01*
X396Y343D02*
X415Y343D01*
X446Y343D02*
X465Y343D01*
X197Y342D02*
X216Y342D01*
X246Y342D02*
X265Y342D01*
X296Y342D02*
X315Y342D01*
X346Y342D02*
X365Y342D01*
X396Y342D02*
X415Y342D01*
X446Y342D02*
X465Y342D01*
X197Y341D02*
X216Y341D01*
X246Y341D02*
X265Y341D01*
X297Y341D02*
X316Y341D01*
X345Y341D02*
X365Y341D01*
X396Y341D02*
X416Y341D01*
X445Y341D02*
X464Y341D01*
X197Y340D02*
X216Y340D01*
X245Y340D02*
X264Y340D01*
X297Y340D02*
X316Y340D01*
X345Y340D02*
X364Y340D01*
X397Y340D02*
X416Y340D01*
X445Y340D02*
X464Y340D01*
X197Y339D02*
X216Y339D01*
X245Y339D02*
X264Y339D01*
X297Y339D02*
X316Y339D01*
X345Y339D02*
X364Y339D01*
X397Y339D02*
X416Y339D01*
X445Y339D02*
X464Y339D01*
X197Y338D02*
X217Y338D01*
X244Y338D02*
X264Y338D01*
X297Y338D02*
X317Y338D01*
X344Y338D02*
X364Y338D01*
X397Y338D02*
X417Y338D01*
X444Y338D02*
X464Y338D01*
X198Y337D02*
X218Y337D01*
X244Y337D02*
X264Y337D01*
X298Y337D02*
X317Y337D01*
X344Y337D02*
X364Y337D01*
X397Y337D02*
X417Y337D01*
X444Y337D02*
X464Y337D01*
X198Y336D02*
X218Y336D01*
X243Y336D02*
X263Y336D01*
X298Y336D02*
X318Y336D01*
X343Y336D02*
X363Y336D01*
X398Y336D02*
X418Y336D01*
X443Y336D02*
X463Y336D01*
X198Y335D02*
X219Y335D01*
X242Y335D02*
X263Y335D01*
X298Y335D02*
X319Y335D01*
X342Y335D02*
X363Y335D01*
X398Y335D02*
X419Y335D01*
X442Y335D02*
X463Y335D01*
X199Y334D02*
X220Y334D01*
X241Y334D02*
X263Y334D01*
X299Y334D02*
X320Y334D01*
X341Y334D02*
X362Y334D01*
X399Y334D02*
X420Y334D01*
X441Y334D02*
X462Y334D01*
X199Y333D02*
X222Y333D01*
X239Y333D02*
X262Y333D01*
X299Y333D02*
X322Y333D01*
X339Y333D02*
X362Y333D01*
X399Y333D02*
X422Y333D01*
X439Y333D02*
X462Y333D01*
X200Y332D02*
X224Y332D01*
X237Y332D02*
X262Y332D01*
X300Y332D02*
X324Y332D01*
X337Y332D02*
X362Y332D01*
X400Y332D02*
X424Y332D01*
X437Y332D02*
X461Y332D01*
X200Y331D02*
X261Y331D01*
X300Y331D02*
X361Y331D01*
X400Y331D02*
X461Y331D01*
X201Y330D02*
X261Y330D01*
X301Y330D02*
X361Y330D01*
X401Y330D02*
X460Y330D01*
X201Y329D02*
X260Y329D01*
X301Y329D02*
X360Y329D01*
X401Y329D02*
X460Y329D01*
X202Y328D02*
X259Y328D01*
X302Y328D02*
X359Y328D01*
X402Y328D02*
X459Y328D01*
X203Y327D02*
X259Y327D01*
X303Y327D02*
X359Y327D01*
X403Y327D02*
X458Y327D01*
X203Y326D02*
X258Y326D01*
X303Y326D02*
X358Y326D01*
X403Y326D02*
X458Y326D01*
X204Y325D02*
X257Y325D01*
X304Y325D02*
X357Y325D01*
X404Y325D02*
X457Y325D01*
X205Y324D02*
X256Y324D01*
X305Y324D02*
X356Y324D01*
X405Y324D02*
X456Y324D01*
X206Y323D02*
X255Y323D01*
X306Y323D02*
X355Y323D01*
X406Y323D02*
X455Y323D01*
X207Y322D02*
X254Y322D01*
X307Y322D02*
X354Y322D01*
X407Y322D02*
X454Y322D01*
X208Y321D02*
X253Y321D01*
X308Y321D02*
X353Y321D01*
X408Y321D02*
X453Y321D01*
X209Y320D02*
X252Y320D01*
X309Y320D02*
X352Y320D01*
X409Y320D02*
X452Y320D01*
X210Y319D02*
X251Y319D01*
X310Y319D02*
X351Y319D01*
X410Y319D02*
X451Y319D01*
X212Y318D02*
X250Y318D01*
X311Y318D02*
X350Y318D01*
X411Y318D02*
X450Y318D01*
X213Y317D02*
X248Y317D01*
X313Y317D02*
X348Y317D01*
X413Y317D02*
X448Y317D01*
X215Y316D02*
X247Y316D01*
X314Y316D02*
X347Y316D01*
X414Y316D02*
X447Y316D01*
X216Y315D02*
X245Y315D01*
X316Y315D02*
X345Y315D01*
X416Y315D02*
X445Y315D01*
X218Y314D02*
X243Y314D01*
X318Y314D02*
X343Y314D01*
X418Y314D02*
X443Y314D01*
X221Y313D02*
X240Y313D01*
X321Y313D02*
X340Y313D01*
X421Y313D02*
X440Y313D01*
X224Y312D02*
X237Y312D01*
X324Y312D02*
X337Y312D01*
X424Y312D02*
X437Y312D01*
D02*
G04 End of Copper1*
M02*