<?xml version="1.0" encoding="UTF-8" standalone="no"?>
<!-- Created with Inkscape (http://www.inkscape.org/) -->

<svg
   xmlns:dc="http://purl.org/dc/elements/1.1/"
   xmlns:cc="http://creativecommons.org/ns#"
   xmlns:rdf="http://www.w3.org/1999/02/22-rdf-syntax-ns#"
   xmlns:svg="http://www.w3.org/2000/svg"
   xmlns="http://www.w3.org/2000/svg"
   xmlns:sodipodi="http://sodipodi.sourceforge.net/DTD/sodipodi-0.dtd"
   xmlns:inkscape="http://www.inkscape.org/namespaces/inkscape"
   width="210mm"
   height="297mm"
   viewBox="0 0 744.09448819 1052.3622047"
   id="svg2"
   version="1.1"
   inkscape:version="0.91 r13725"
   sodipodi:docname="BPlus-Cut-interesting-parts.svg">
  <defs
     id="defs4">
    <marker
       style="overflow:visible"
       refY="0.0"
       refX="0.0"
       orient="auto"
       id="DistanceX">
      <path
         id="path4143"
         style="stroke:#000000; stroke-width:0.5"
         d="M 3,-3 L -3,3 M 0,-5 L  0,5" />
    </marker>
    <pattern
       y="0"
       x="0"
       width="8"
       patternUnits="userSpaceOnUse"
       id="Hatch"
       height="8">
      <path
         id="path4146"
         stroke-width="0.25"
         stroke="#000000"
         linecap="square"
         d="M8 4 l-4,4" />
      <path
         id="path4148"
         stroke-width="0.25"
         stroke="#000000"
         linecap="square"
         d="M6 2 l-4,4" />
      <path
         id="path4150"
         stroke-width="0.25"
         stroke="#000000"
         linecap="square"
         d="M4 0 l-4,4" />
    </pattern>
    <symbol
       id="*Model_Space" />
    <symbol
       id="*Paper_Space" />
    <symbol
       id="*Paper_Space0" />
  </defs>
  <sodipodi:namedview
     id="base"
     pagecolor="#ffffff"
     bordercolor="#666666"
     borderopacity="1.0"
     inkscape:pageopacity="0.0"
     inkscape:pageshadow="2"
     inkscape:zoom="0.7"
     inkscape:cx="314.83557"
     inkscape:cy="753.79188"
     inkscape:document-units="px"
     inkscape:current-layer="layer1"
     showgrid="false"
     inkscape:window-width="1366"
     inkscape:window-height="1138"
     inkscape:window-x="0"
     inkscape:window-y="0"
     inkscape:window-maximized="0" />
  <metadata
     id="metadata7">
    <rdf:RDF>
      <cc:Work
         rdf:about="">
        <dc:format>image/svg+xml</dc:format>
        <dc:type
           rdf:resource="http://purl.org/dc/dcmitype/StillImage" />
        <dc:title></dc:title>
      </cc:Work>
    </rdf:RDF>
  </metadata>
  <g
     inkscape:label="Capa 1"
     inkscape:groupmode="layer"
     id="layer1">
    <g
       inkscape:label="0"
       id="g4155"
       transform="translate(-155.37852,-288.73744)" />
    <path
       id="path4305"
       style="fill:none;stroke:#333333;stroke-width:0.5"
       d="m 398.24368,203.30018 c -6.19291,0 -11.2134,-5.01937 -11.2134,-11.21252"
       inkscape:connector-curvature="0" />
    <path
       id="path4307"
       style="fill:none;stroke:#333333;stroke-width:0.5"
       d="m 407.94445,197.69436 c -1.93916,3.34841 -5.55175,5.60581 -9.70077,5.60581"
       inkscape:connector-curvature="0" />
    <path
       id="path4309"
       style="fill:none;stroke:#333333;stroke-width:0.5"
       d="m 517.26802,197.69436 c 0,0 -109.32357,0 -109.32357,0"
       inkscape:connector-curvature="0" />
    <path
       id="path4311"
       style="fill:none;stroke:#333333;stroke-width:0.5"
       d="m 526.9688,203.30017 c -4.14812,0 -7.76071,-2.2574 -9.70078,-5.60581"
       inkscape:connector-curvature="0" />
    <path
       id="path4313"
       style="fill:none;stroke:#333333;stroke-width:0.5"
       d="m 538.18197,192.08766 c 0,6.19314 -5.02026,11.21251 -11.21317,11.21251"
       inkscape:connector-curvature="0" />
    <path
       id="path4337"
       style="fill:none;stroke:#333333;stroke-width:0.5"
       d="m 447.32478,175.49317 c 0,0 0,-33.55856 0,-33.55856"
       inkscape:connector-curvature="0" />
    <path
       id="path4339"
       style="fill:none;stroke:#333333;stroke-width:0.5"
       d="m 402.95356,145.78783 c 0,0 0,29.70535 0,29.70535"
       inkscape:connector-curvature="0" />
    <path
       id="path4341"
       style="fill:none;stroke:#333333;stroke-width:0.5"
       d="m 405.1955,143.54501 c -1.23769,0 -2.24192,1.00446 -2.24192,2.2428"
       inkscape:connector-curvature="0" />
    <path
       id="path4343"
       style="fill:none;stroke:#333333;stroke-width:0.5"
       d="m 439.9561,143.54499 c 0,0 -34.76059,0 -34.76059,0"
       inkscape:connector-curvature="0" />
    <path
       id="path4345"
       style="fill:none;stroke:#333333;stroke-width:0.5"
       d="m 442.19824,145.78781 c 0,-1.23836 -1.00288,-2.24282 -2.24215,-2.24282"
       inkscape:connector-curvature="0" />
    <path
       id="path4347"
       style="fill:none;stroke:#333333;stroke-width:0.5"
       d="m 442.19821,175.49316 c 0,0 0,-29.70535 0,-29.70535"
       inkscape:connector-curvature="0" />
    <path
       id="path4349"
       style="fill:none;stroke:#333333;stroke-width:0.5"
       d="m 523.35844,177.73599 c 0,0 -73.79084,0 -73.79084,0"
       inkscape:connector-curvature="0" />
    <path
       id="path4351"
       style="fill:none;stroke:#333333;stroke-width:0.5"
       d="m 449.5676,177.73599 c -1.23881,0 -2.24282,-1.00446 -2.24282,-2.24282"
       inkscape:connector-curvature="0" />
    <path
       id="path4361"
       style="fill:none;stroke:#333333;stroke-width:0.5"
       d="M 525.74293,175.58359 525.549,162.3693"
       inkscape:connector-curvature="0"
       sodipodi:nodetypes="cc" />
    <path
       id="path4365"
       style="fill:none;stroke:#333333;stroke-width:0.5"
       d="m 402.95335,175.49317 c 0,1.23836 1.00445,2.24282 2.24214,2.24282"
       inkscape:connector-curvature="0" />
    <path
       id="path4367"
       style="fill:none;stroke:#333333;stroke-width:0.5"
       d="m 439.95608,177.73599 c 1.23926,0 2.24192,-1.00446 2.24192,-2.24282"
       inkscape:connector-curvature="0" />
    <path
       id="path4369"
       style="fill:none;stroke:#333333;stroke-width:0.5"
       d="m 405.19549,177.736 c 0,0 34.76058,0 34.76058,0"
       inkscape:connector-curvature="0" />
    <path
       id="path4371"
       style="fill:none;stroke:#333333;stroke-width:0.5"
       d="m 525.54901,141.93461 c 0,0 0,20.4347 0,20.4347"
       inkscape:connector-curvature="0" />
    <path
       id="path4373"
       style="fill:none;stroke:#333333;stroke-width:0.5"
       d="m 525.54901,175.49317 c 0,1.23836 -1.00378,2.24282 -2.24304,2.24282"
       inkscape:connector-curvature="0" />
    <path
       id="path4459"
       style="fill:none;stroke:#333333;stroke-width:0.5"
       d="m 387.03028,192.08766 c 0,0 0,-90.56922 0,-90.56922"
       inkscape:connector-curvature="0" />
    <path
       id="path4461"
       style="fill:none;stroke:#333333;stroke-width:0.5"
       d="m 395.57455,92.97416 c -4.71885,0 -8.54427,3.82541 -8.54427,8.54427"
       inkscape:connector-curvature="0" />
    <path
       id="path4463"
       style="fill:none;stroke:#333333;stroke-width:0.5"
       d="m 395.57455,92.97416 136.56248,0"
       inkscape:connector-curvature="0"
       sodipodi:nodetypes="cc" />
    <path
       id="path4465"
       style="fill:none;stroke:#333333;stroke-width:0.5"
       d="m 538.1813,101.51843 c 0,-2.26614 -0.90018,-4.43944 -2.50251,-6.04177 0,0 -1.60255,-1.60233 -3.77562,-2.5025"
       inkscape:connector-curvature="0" />
    <path
       id="path4483"
       style="fill:none;stroke:#333333;stroke-width:0.5"
       d="m 538.1813,192.08767 c 0,0 0,-90.56923 0,-90.56923"
       inkscape:connector-curvature="0" />
    <path
       id="path4591"
       style="fill:none;stroke:#333333;stroke-width:0.5"
       d="m 335.32647,193.05076 c 0,0 0,-18.66082 0,-18.66082"
       inkscape:connector-curvature="0" />
    <path
       id="path4593"
       style="fill:none;stroke:#333333;stroke-width:0.5"
       d="m 335.32647,174.38994 c 0,-3.32351 -1.32021,-6.51113 -3.67067,-8.86114 0,0 -2.34979,-2.35024 -5.53741,-3.67045"
       inkscape:connector-curvature="0" />
    <path
       id="path4595"
       style="fill:none;stroke:#333333;stroke-width:0.5"
       d="m 131.40305,161.85835 c -6.92108,0 -12.53159,5.61051 -12.53159,12.53159"
       inkscape:connector-curvature="0" />
    <path
       id="path4597"
       style="fill:none;stroke:#333333;stroke-width:0.5"
       d="m 118.87146,174.38994 c 0,0 0,18.66082 0,18.66082"
       inkscape:connector-curvature="0" />
    <path
       id="path4601"
       style="fill:none;stroke:#333333;stroke-width:0.5"
       d="m 118.87079,193.05009 c 0,0.7553 0.30028,1.47988 0.83424,2.01384 0,0 0.53396,0.53419 1.25877,0.83425"
       inkscape:connector-curvature="0" />
    <path
       id="path4603"
       style="fill:none;stroke:#333333;stroke-width:0.5"
       d="m 121.71888,195.89818 c 0,0 3.1329,0 3.1329,0"
       inkscape:connector-curvature="0" />
    <path
       id="path4605"
       style="fill:none;stroke:#333333;stroke-width:0.5"
       d="m 124.85178,190.4054 c 0,0 0,5.49278 0,5.49278"
       inkscape:connector-curvature="0" />
    <path
       id="path4607"
       style="fill:none;stroke:#333333;stroke-width:0.5"
       d="m 131.40238,190.20267 c -0.63712,-1.09035 -1.94387,-1.75998 -3.3493,-1.71648 0,0 -1.40611,0.0433 -2.65456,0.79231"
       inkscape:connector-curvature="0" />
    <path
       id="path4609"
       style="fill:none;stroke:#333333;stroke-width:0.5"
       d="m 133.92036,195.89818 c 0,0 -2.51798,-5.69551 -2.51798,-5.69551"
       inkscape:connector-curvature="0" />
    <path
       id="path4611"
       style="fill:none;stroke:#333333;stroke-width:0.5"
       d="m 133.92036,195.89818 c 0,0 186.35586,0 186.35586,0"
       inkscape:connector-curvature="0" />
    <path
       id="path4613"
       style="fill:none;stroke:#333333;stroke-width:0.5"
       d="m 322.7942,190.20267 c 0,0 -2.51798,5.69551 -2.51798,5.69551"
       inkscape:connector-curvature="0" />
    <path
       id="path4615"
       style="fill:none;stroke:#333333;stroke-width:0.5"
       d="m 332.47771,195.89818 c 0.75508,0 1.47966,-0.30006 2.01384,-0.83425 0,0 0.53396,-0.53396 0.83402,-1.25854"
       inkscape:connector-curvature="0" />
    <path
       id="path4631"
       style="fill:none;stroke:#333333;stroke-width:0.5"
       d="m 332.47771,195.89818 c 0,0 -3.1329,0 -3.1329,0"
       inkscape:connector-curvature="0" />
    <path
       id="path4633"
       style="fill:none;stroke:#333333;stroke-width:0.5"
       d="m 329.34481,190.4054 c 0,0 0,5.49278 0,5.49278"
       inkscape:connector-curvature="0" />
    <path
       id="path4635"
       style="fill:none;stroke:#333333;stroke-width:0.5"
       d="m 322.7942,190.20267 c 0.63712,-1.09035 1.94388,-1.75998 3.34931,-1.71648 0,0 1.40611,0.0433 2.65456,0.79231"
       inkscape:connector-curvature="0" />
    <path
       id="path4637"
       style="fill:none;stroke:#333333;stroke-width:0.5"
       d="m 187.55594,176.53947 c 0.42721,0.42721 1.00714,0.66739 1.61107,0.66739"
       inkscape:connector-curvature="0" />
    <path
       id="path4639"
       style="fill:none;stroke:#333333;stroke-width:0.5"
       d="m 185.3351,174.31863 c 0,0 2.22084,2.22084 2.22084,2.22084"
       inkscape:connector-curvature="0" />
    <path
       id="path4641"
       style="fill:none;stroke:#333333;stroke-width:0.5"
       d="m 184.66771,172.70755 c 0,0.60416 0.24018,1.18387 0.66739,1.61108"
       inkscape:connector-curvature="0" />
    <path
       id="path4643"
       style="fill:none;stroke:#333333;stroke-width:0.5"
       d="m 184.66771,164.34852 c 0,0 0,8.35903 0,8.35903"
       inkscape:connector-curvature="0" />
    <path
       id="path4645"
       style="fill:none;stroke:#333333;stroke-width:0.5"
       d="m 186.94618,162.07005 c -1.2581,0 -2.27847,1.02016 -2.27847,2.27847"
       inkscape:connector-curvature="0" />
    <path
       id="path4647"
       style="fill:none;stroke:#333333;stroke-width:0.5"
       d="m 218.26955,162.07005 c 0,0 -31.32337,0 -31.32337,0"
       inkscape:connector-curvature="0" />
    <path
       id="path4649"
       style="fill:none;stroke:#333333;stroke-width:0.5"
       d="m 220.54802,164.34852 c 0,-0.60415 -0.24018,-1.18386 -0.66739,-1.61107 0,0 -0.42744,-0.42722 -1.00692,-0.6674"
       inkscape:connector-curvature="0" />
    <path
       id="path4651"
       style="fill:none;stroke:#333333;stroke-width:0.5"
       d="m 220.54802,172.70755 c 0,0 0,-8.35903 0,-8.35903"
       inkscape:connector-curvature="0" />
    <path
       id="path4653"
       style="fill:none;stroke:#333333;stroke-width:0.5"
       d="m 219.88063,174.31863 c 0.42721,-0.42721 0.66739,-1.00692 0.66739,-1.61108"
       inkscape:connector-curvature="0" />
    <path
       id="path4655"
       style="fill:none;stroke:#333333;stroke-width:0.5"
       d="m 217.66002,176.53947 c 0,0 2.22061,-2.22084 2.22061,-2.22084"
       inkscape:connector-curvature="0" />
    <path
       id="path4657"
       style="fill:none;stroke:#333333;stroke-width:0.5"
       d="m 216.04872,177.20686 c 0.60415,0 1.18364,-0.24018 1.6113,-0.66739"
       inkscape:connector-curvature="0" />
    <path
       id="path4659"
       style="fill:none;stroke:#333333;stroke-width:0.5"
       d="m 189.16701,177.20686 c 0,0 26.88171,0 26.88171,0"
       inkscape:connector-curvature="0" />
    <path
       id="path4661"
       style="fill:none;stroke:#333333;stroke-width:0.5"
       d="m 141.28032,179.36894 c 0,0 0,-11.21183 0,-11.21183"
       inkscape:connector-curvature="0" />
    <path
       id="path4663"
       style="fill:none;stroke:#333333;stroke-width:0.5"
       d="m 145.76415,183.85457 c -2.47671,0 -4.48383,-2.00869 -4.48383,-4.48563"
       inkscape:connector-curvature="0" />
    <path
       id="path4665"
       style="fill:none;stroke:#333333;stroke-width:0.5"
       d="m 163.70554,183.85457 c 0,0 -17.94139,0 -17.94139,0"
       inkscape:connector-curvature="0" />
    <path
       id="path4667"
       style="fill:none;stroke:#333333;stroke-width:0.5"
       d="m 168.19095,179.36894 c 0,2.47694 -2.00869,4.48563 -4.48541,4.48563"
       inkscape:connector-curvature="0" />
    <path
       id="path4669"
       style="fill:none;stroke:#333333;stroke-width:0.5"
       d="m 168.19095,168.15711 c 0,0 0,11.21183 0,11.21183"
       inkscape:connector-curvature="0" />
    <path
       id="path4671"
       style="fill:none;stroke:#333333;stroke-width:0.5"
       d="m 163.70554,163.67149 c 2.47672,0 4.48541,2.00868 4.48541,4.48562"
       inkscape:connector-curvature="0" />
    <path
       id="path4673"
       style="fill:none;stroke:#333333;stroke-width:0.5"
       d="m 145.76415,163.67149 c 0,0 17.94139,0 17.94139,0"
       inkscape:connector-curvature="0" />
    <path
       id="path4675"
       style="fill:none;stroke:#333333;stroke-width:0.5"
       d="m 141.28032,168.15711 c 0,-2.47694 2.00712,-4.48562 4.48383,-4.48562"
       inkscape:connector-curvature="0" />
    <path
       id="path4677"
       style="fill:none;stroke:#333333;stroke-width:0.5"
       d="m 242.481,170.61432 c 0,4.71908 3.82541,8.54404 8.54427,8.54404 0,0 4.71863,2.3e-4 8.54427,-3.82496 0,-4.71886 0,-4.71886 0,-9.43771 -3.82564,-3.82519 -8.54427,-3.82541 -8.54427,-3.82541 -4.71886,0 -8.54427,3.82518 -8.54427,8.54404 z"
       inkscape:connector-curvature="0" />
    <path
       id="path4679"
       style="fill:none;stroke:#333333;stroke-width:0.5"
       d="m 322.79488,161.85835 c 0,0 0,-52.40484 0,-52.40484"
       inkscape:connector-curvature="0" />
    <path
       id="path4681"
       style="fill:none;stroke:#333333;stroke-width:0.5"
       d="m 322.79488,109.45351 c -27.58991,-3.2845 -68.97467,-5.37055 -82.76974,-5.59235"
       inkscape:connector-curvature="0" />
    <path
       id="path4683"
       style="fill:none;stroke:#333333;stroke-width:0.5"
       d="m 240.02514,98.27868 c 0,0 0,5.58248 0,5.58248"
       inkscape:connector-curvature="0" />
    <path
       id="path4685"
       style="fill:none;stroke:#333333;stroke-width:0.5"
       d="m 214.39234,98.2751 c 8.54404,-0.13411 17.08853,-0.13299 25.6328,0.004"
       inkscape:connector-curvature="0" />
    <path
       id="path4687"
       style="fill:none;stroke:#333333;stroke-width:0.5"
       d="m 214.39234,103.85757 c 0,0 0,-5.58247 0,-5.58247"
       inkscape:connector-curvature="0" />
    <path
       id="path4689"
       style="fill:none;stroke:#333333;stroke-width:0.5"
       d="m 214.39234,103.85757 c -27.66302,0.43731 -69.15766,3.94921 -82.98929,5.59594"
       inkscape:connector-curvature="0" />
    <path
       id="path4691"
       style="fill:none;stroke:#333333;stroke-width:0.5"
       d="m 131.40305,109.45351 c 0,0 0,52.40484 0,52.40484"
       inkscape:connector-curvature="0" />
    <path
       id="path4693"
       style="fill:none;stroke:#333333;stroke-width:0.5"
       d="m 237.54282,129.60206 c 0,6.50239 5.27121,11.7736 11.7736,11.7736 0,0 6.50239,0 11.77359,-5.27121 0,-6.50239 0,-6.50239 0,-13.00478 -5.2712,-5.27121 -11.77337,-5.27121 -11.77337,-5.27121 -6.50261,0 -11.77382,5.27121 -11.77382,11.7736 z"
       inkscape:connector-curvature="0" />
    <path
       id="path4695"
       style="fill:none;stroke:#333333;stroke-width:0.5"
       d="m 196.8434,129.60206 c 0,6.50239 5.27121,11.7736 11.7736,11.7736 0,0 6.50239,0 11.77359,-5.27121 0,-6.50239 0,-6.50239 0,-13.00478 -5.2712,-5.27121 -11.77337,-5.27121 -11.77337,-5.27121 -6.50261,0 -11.77382,5.27121 -11.77382,11.7736 z"
       inkscape:connector-curvature="0" />
    <path
       id="path4717"
       style="fill:none;stroke:#333333;stroke-width:0.5"
       d="m 523.30596,139.6918 c 0,0 -73.73837,0 -73.73837,0"
       inkscape:connector-curvature="0" />
    <path
       id="path4719"
       style="fill:none;stroke:#333333;stroke-width:0.5"
       d="m 449.5676,139.69179 c -1.23881,0 -2.24282,1.00446 -2.24282,2.24282"
       inkscape:connector-curvature="0" />
    <path
       id="path4721"
       style="fill:none;stroke:#333333;stroke-width:0.5"
       d="m 525.49654,141.93461 c 0,-1.23836 -1.00379,-2.24282 -2.24304,-2.24282"
       inkscape:connector-curvature="0" />
  </g>
</svg>
