; NON-PLATED HOLES START AT T1
; THROUGH (PLATED) HOLES START AT T100
M48
INCH
T100C0.035000
T101C0.086000
%
T100
X013616Y004961
X001663Y001961
X004663Y003961
X009679Y001024
X007664Y010961
X011664Y010961
X005664Y010961
X011664Y007961
X004664Y010961
X005664Y007961
X004663Y000961
X002664Y007961
X007711Y004961
X001663Y002961
X002664Y010961
X007664Y007961
X004664Y007961
X012632Y005945
X009664Y010961
X010664Y010961
X011648Y001024
X009664Y007961
X010663Y004961
X001663Y003961
X010664Y007961
X008695Y005945
X004663Y001961
X008664Y010961
X012664Y007961
X003664Y010961
X006664Y007961
X001663Y000961
X012664Y010961
X006664Y010961
X001664Y010961
X008664Y007961
X001664Y007961
X004663Y002961
X003664Y007961
T101
X007711Y002992
X013616Y002992
T00
M30
