G04 MADE WITH FRITZING*
G04 WWW.FRITZING.ORG*
G04 DOUBLE SIDED*
G04 HOLES PLATED*
G04 CONTOUR ON CENTER OF CONTOUR VECTOR*
%ASAXBY*%
%FSLAX23Y23*%
%MOIN*%
%OFA0B0*%
%SFA1.0B1.0*%
%ADD10C,0.075000*%
%ADD11C,0.126000*%
%ADD12R,0.075000X0.075000*%
%ADD13C,0.024000*%
%LNCOPPER0*%
G90*
G70*
G54D10*
X1266Y1096D03*
X1266Y796D03*
X1166Y1096D03*
X1166Y796D03*
X1066Y1096D03*
X1066Y796D03*
X966Y1096D03*
X966Y796D03*
X866Y1096D03*
X866Y796D03*
X766Y1096D03*
X766Y796D03*
X666Y1096D03*
X666Y796D03*
X566Y1096D03*
X566Y796D03*
X466Y1096D03*
X466Y796D03*
X366Y1096D03*
X366Y796D03*
X266Y1096D03*
X266Y796D03*
X166Y1096D03*
X166Y796D03*
X166Y396D03*
X466Y396D03*
X166Y296D03*
X466Y296D03*
X166Y196D03*
X466Y196D03*
X166Y96D03*
X466Y96D03*
X771Y496D03*
X870Y595D03*
X1066Y496D03*
X1263Y595D03*
X1362Y496D03*
X968Y102D03*
G54D11*
X1362Y299D03*
X771Y299D03*
G54D10*
X1165Y102D03*
G54D12*
X1266Y1096D03*
X166Y396D03*
G54D13*
X946Y776D02*
X896Y729D01*
D02*
X896Y729D02*
X896Y633D01*
D02*
X896Y633D02*
X886Y618D01*
D02*
X858Y769D02*
X780Y523D01*
D02*
X465Y1068D02*
X464Y1041D01*
D02*
X464Y1041D02*
X116Y873D01*
D02*
X116Y873D02*
X104Y873D01*
D02*
X104Y873D02*
X104Y729D01*
D02*
X104Y729D02*
X176Y729D01*
D02*
X176Y729D02*
X167Y425D01*
D02*
X887Y1076D02*
X1064Y897D01*
D02*
X1064Y897D02*
X1328Y873D01*
D02*
X1328Y873D02*
X1328Y729D01*
D02*
X1328Y729D02*
X992Y717D01*
D02*
X992Y717D02*
X956Y681D01*
D02*
X956Y681D02*
X920Y537D01*
D02*
X920Y537D02*
X848Y537D01*
D02*
X848Y537D02*
X800Y429D01*
D02*
X800Y429D02*
X495Y399D01*
D02*
X647Y1117D02*
X608Y1161D01*
D02*
X608Y1161D02*
X104Y1161D01*
D02*
X104Y1161D02*
X56Y945D01*
D02*
X56Y945D02*
X56Y681D01*
D02*
X56Y681D02*
X104Y249D01*
D02*
X104Y249D02*
X145Y215D01*
D02*
X194Y91D02*
X368Y57D01*
D02*
X368Y57D02*
X368Y33D01*
D02*
X368Y33D02*
X512Y33D01*
D02*
X512Y33D02*
X512Y45D01*
D02*
X512Y45D02*
X824Y201D01*
D02*
X824Y201D02*
X1040Y681D01*
D02*
X1040Y681D02*
X1376Y681D01*
D02*
X1376Y681D02*
X1376Y945D01*
D02*
X1376Y945D02*
X1328Y1161D01*
D02*
X1328Y1161D02*
X824Y1161D01*
D02*
X824Y1161D02*
X785Y1118D01*
G04 End of Copper0*
M02*