G04 MADE WITH FRITZING*
G04 WWW.FRITZING.ORG*
G04 DOUBLE SIDED*
G04 HOLES PLATED*
G04 CONTOUR ON CENTER OF CONTOUR VECTOR*
%ASAXBY*%
%FSLAX23Y23*%
%MOIN*%
%OFA0B0*%
%SFA1.0B1.0*%
%ADD10C,0.075000*%
%ADD11C,0.126000*%
%ADD12R,0.075000X0.075000*%
%ADD13C,0.024000*%
%LNCOPPER1*%
G90*
G70*
G54D10*
X1266Y1096D03*
X1266Y796D03*
X1166Y1096D03*
X1166Y796D03*
X1066Y1096D03*
X1066Y796D03*
X966Y1096D03*
X966Y796D03*
X866Y1096D03*
X866Y796D03*
X766Y1096D03*
X766Y796D03*
X666Y1096D03*
X666Y796D03*
X566Y1096D03*
X566Y796D03*
X466Y1096D03*
X466Y796D03*
X366Y1096D03*
X366Y796D03*
X266Y1096D03*
X266Y796D03*
X166Y1096D03*
X166Y796D03*
X166Y396D03*
X466Y396D03*
X166Y296D03*
X466Y296D03*
X166Y196D03*
X466Y196D03*
X166Y96D03*
X466Y96D03*
X771Y496D03*
X870Y595D03*
X1066Y496D03*
X1263Y595D03*
X1362Y496D03*
X968Y102D03*
G54D11*
X1362Y299D03*
X771Y299D03*
G54D10*
X1165Y102D03*
G54D12*
X1266Y1096D03*
X166Y396D03*
G54D13*
X1066Y768D02*
X1066Y525D01*
D02*
X1179Y770D02*
X1251Y620D01*
D02*
X1275Y769D02*
X1353Y523D01*
D02*
X546Y1076D02*
X536Y1065D01*
D02*
X536Y1065D02*
X104Y849D01*
D02*
X104Y849D02*
X104Y321D01*
D02*
X104Y321D02*
X140Y307D01*
D02*
X1087Y1076D02*
X1424Y753D01*
D02*
X1424Y753D02*
X1424Y441D01*
D02*
X1424Y441D02*
X944Y417D01*
D02*
X944Y417D02*
X920Y657D01*
D02*
X920Y657D02*
X608Y657D01*
D02*
X608Y657D02*
X500Y321D01*
D02*
X500Y321D02*
X489Y313D01*
D02*
X1287Y1076D02*
X1472Y897D01*
D02*
X1472Y897D02*
X1472Y393D01*
D02*
X1472Y393D02*
X1424Y213D01*
D02*
X1424Y213D02*
X495Y197D01*
D02*
X1182Y1120D02*
X1208Y1161D01*
D02*
X1208Y1161D02*
X1328Y1161D01*
D02*
X1328Y1161D02*
X1520Y969D01*
D02*
X1520Y969D02*
X1520Y345D01*
D02*
X1520Y345D02*
X1496Y177D01*
D02*
X1496Y177D02*
X1208Y45D01*
D02*
X1208Y45D02*
X848Y57D01*
D02*
X848Y57D02*
X495Y93D01*
G04 End of Copper1*
M02*